<svg width="833" height="833" viewBox="0 0 833 833" fill="none" xmlns="http://www.w3.org/2000/svg">
<path d="M281.792 250.794L255.126 204.608L228.428 202.623L218.588 225.705L245.273 271.923C264.442 275.441 278.683 268.009 281.792 250.794Z" fill="#B9C1CB"/>
<path d="M551.232 250.794L577.898 204.608L604.596 202.623L614.436 225.705L587.751 271.923C568.582 275.441 554.341 268.009 551.232 250.794Z" fill="#B9C1CB"/>
<path d="M438.179 178.768C471.645 169.18 495.018 138.138 495.018 103.282C495.018 59.989 459.796 24.7687 416.503 24.7687C373.21 24.7687 337.988 59.9906 337.988 103.282C337.988 138.138 361.361 169.18 394.827 178.768L398.222 204.946C348.804 196.11 313.222 152.597 313.222 103.281C313.221 46.3324 359.553 0 416.503 0C473.453 0 519.785 46.3324 519.785 103.281C519.785 152.525 484.308 195.983 435.003 204.907L438.179 178.768Z" fill="#DAE4EA"/>
<path d="M416.506 226.463C424.953 226.463 433.319 226.858 441.592 227.633V124.536H391.418V227.633C399.693 226.858 408.058 226.463 416.506 226.463V226.463Z" fill="#B9C1CB"/>
<path d="M416.508 833C585.869 833 723.162 695.706 723.162 526.346C723.162 356.985 585.869 219.691 416.508 219.691C247.147 219.691 109.853 356.985 109.853 526.346C109.853 695.706 247.147 833 416.508 833Z" fill="#DAE4EA"/>
<path d="M453.681 75.0975H379.351C375.663 75.0975 372.674 78.0863 372.674 81.7746V124.788C372.674 128.476 375.663 131.465 379.351 131.465H453.681C457.37 131.465 460.358 128.476 460.358 124.788V81.7746C460.358 78.0879 457.368 75.0975 453.681 75.0975Z" fill="#DAE4EA"/>
<path d="M258.924 202.416L214.784 227.9C213.123 228.858 210.999 228.291 210.041 226.629L177.058 169.502C176.1 167.841 176.667 165.718 178.329 164.76L222.469 139.275C224.13 138.317 226.254 138.885 227.212 140.546L260.195 197.673C261.155 199.332 260.586 201.456 258.924 202.416Z" fill="#DAE4EA"/>
<path d="M574.119 202.416L618.26 227.9C619.921 228.858 622.045 228.291 623.003 226.629L655.986 169.502C656.944 167.841 656.377 165.718 654.716 164.76L610.575 139.275C608.914 138.317 606.79 138.885 605.832 140.546L572.849 197.673C571.889 199.332 572.458 201.456 574.119 202.416Z" fill="#DAE4EA"/>
<path d="M416.514 777.248C555.084 777.248 667.418 664.914 667.418 526.344C667.418 387.774 555.084 275.44 416.514 275.44C277.944 275.44 165.61 387.774 165.61 526.344C165.61 664.914 277.944 777.248 416.514 777.248Z" fill="#F6F9F9"/>
<path d="M494.349 287.75C559.059 333.128 601.363 408.285 601.363 493.321C601.363 631.892 489.03 744.225 350.459 744.225C323.286 744.225 297.121 739.905 272.616 731.913C313.354 760.481 362.972 777.247 416.506 777.247C555.076 777.247 667.409 664.914 667.409 526.343C667.409 414.947 594.813 320.506 494.349 287.75V287.75Z" fill="#E7ECF1"/>
<path d="M416.5 523.992V319.096C416.5 317.787 417.572 316.716 418.882 316.731C532.585 318.003 624.839 410.259 626.112 523.961C626.126 525.27 625.056 526.343 623.746 526.343H418.851C417.553 526.344 416.5 525.29 416.5 523.992Z" fill="#DA4A54"/>
<path d="M623.75 526.345C625.06 526.345 626.13 525.273 626.116 523.964C625.592 477.169 609.658 434.008 583.161 399.326C594.899 428.357 601.362 460.084 601.362 493.323C601.362 504.517 600.628 515.539 599.208 526.345H623.75Z" fill="#D82E3D"/>
</svg>
