<svg width="727" height="727" viewBox="0 0 727 727" fill="none" xmlns="http://www.w3.org/2000/svg">
<path d="M245.911 218.881L222.638 178.573L199.338 176.84L190.75 196.985L214.039 237.322C230.769 240.392 243.197 233.906 245.911 218.881Z" fill="#B9C1CB"/>
<path d="M481.082 218.881L504.355 178.573L527.656 176.84L536.243 196.985L512.954 237.322C496.224 240.392 483.796 233.906 481.082 218.881Z" fill="#B9C1CB"/>
<path d="M382.411 156.02C411.619 147.652 432.018 120.56 432.018 90.1395C432.018 52.3554 401.278 21.6169 363.494 21.6169C325.71 21.6169 294.97 52.3568 294.97 90.1395C294.97 120.56 315.368 147.652 344.576 156.02L347.54 178.866C304.41 171.155 273.356 133.179 273.356 90.1381C273.354 40.4365 313.791 0 363.494 0C413.197 0 453.633 40.4365 453.633 90.1381C453.633 133.116 422.67 171.044 379.64 178.832L382.411 156.02Z" fill="#DAE4EA"/>
<path d="M363.491 197.645C370.863 197.645 378.164 197.99 385.385 198.666V108.688H341.596V198.666C348.817 197.99 356.119 197.645 363.491 197.645V197.645Z" fill="#B9C1CB"/>
<path d="M363.498 726.997C511.308 726.997 631.131 607.174 631.131 459.365C631.131 311.555 511.308 191.732 363.498 191.732C215.689 191.732 95.8656 311.555 95.8656 459.365C95.8656 607.174 215.689 726.997 363.498 726.997Z" fill="#DAE4EA"/>
<path d="M395.924 65.5388H331.052C327.833 65.5388 325.225 68.1472 325.225 71.3662V108.906C325.225 112.125 327.833 114.733 331.052 114.733H395.924C399.143 114.733 401.751 112.125 401.751 108.906V71.3662C401.751 68.1486 399.142 65.5388 395.924 65.5388Z" fill="#DAE4EA"/>
<path d="M225.958 176.657L187.434 198.899C185.984 199.735 184.131 199.24 183.295 197.79L154.509 147.932C153.673 146.482 154.168 144.629 155.618 143.793L194.142 121.551C195.591 120.715 197.444 121.211 198.281 122.66L227.067 172.518C227.905 173.967 227.408 175.82 225.958 176.657Z" fill="#DAE4EA"/>
<path d="M501.036 176.657L539.56 198.899C541.01 199.735 542.863 199.239 543.699 197.79L572.485 147.932C573.322 146.482 572.826 144.629 571.376 143.793L532.852 121.551C531.403 120.715 529.55 121.21 528.713 122.66L499.927 172.518C499.089 173.966 499.586 175.819 501.036 176.657Z" fill="#DAE4EA"/>
<path d="M363.495 678.345C484.432 678.345 582.471 580.306 582.471 459.369C582.471 338.432 484.432 240.393 363.495 240.393C242.558 240.393 144.519 338.432 144.519 459.369C144.519 580.306 242.558 678.345 363.495 678.345Z" fill="#F6F9F9"/>
<path d="M546.452 459.368C546.452 359.006 465.22 277.26 365.052 276.423C364.2 276.416 363.501 277.114 363.501 277.966V459.368H182.1C181.248 459.368 180.553 460.066 180.56 460.918C181.396 561.087 263.141 642.319 363.504 642.319C363.913 642.319 364.32 642.318 364.726 642.315C465.044 641.654 546.452 559.84 546.452 459.368Z" fill="#FFC954"/>
<path d="M414.988 283.793C459.762 317.173 488.811 370.531 488.811 430.547C488.811 531.018 407.401 612.834 307.082 613.493C306.676 613.496 306.269 613.497 305.86 613.497C287.99 613.497 270.712 610.921 254.375 606.122C284.861 628.851 322.638 642.317 363.502 642.317C363.91 642.317 364.318 642.316 364.724 642.313C465.043 641.654 546.453 559.838 546.453 459.367C546.451 376.357 490.881 306.084 414.988 283.793V283.793Z" fill="#E1A729"/>
</svg>
