<svg width="151" height="179" viewBox="0 0 151 179" fill="none" xmlns="http://www.w3.org/2000/svg">
<path d="M0 13.9998C0 6.26776 6.26801 -0.000244141 14 -0.000244141H137C144.732 -0.000244141 151 6.26777 151 13.9998V165C151 172.732 144.732 179 137 179H14C6.26801 179 0 172.732 0 165V13.9998Z" fill="white"/>
<path d="M29.072 137.636V138.524H26.792V146H25.7V138.524H23.408V137.636H29.072Z" fill="black"/>
<path d="M33.2842 146.108C32.6682 146.108 32.1082 145.968 31.6042 145.688C31.1082 145.408 30.7162 145.012 30.4282 144.5C30.1482 143.98 30.0082 143.38 30.0082 142.7C30.0082 142.028 30.1522 141.436 30.4402 140.924C30.7362 140.404 31.1362 140.008 31.6402 139.736C32.1442 139.456 32.7082 139.316 33.3322 139.316C33.9562 139.316 34.5202 139.456 35.0242 139.736C35.5282 140.008 35.9242 140.4 36.2122 140.912C36.5082 141.424 36.6562 142.02 36.6562 142.7C36.6562 143.38 36.5042 143.98 36.2002 144.5C35.9042 145.012 35.5002 145.408 34.9882 145.688C34.4762 145.968 33.9082 146.108 33.2842 146.108ZM33.2842 145.148C33.6762 145.148 34.0442 145.056 34.3882 144.872C34.7322 144.688 35.0082 144.412 35.2162 144.044C35.4322 143.676 35.5402 143.228 35.5402 142.7C35.5402 142.172 35.4362 141.724 35.2282 141.356C35.0202 140.988 34.7482 140.716 34.4122 140.54C34.0762 140.356 33.7122 140.264 33.3202 140.264C32.9202 140.264 32.5522 140.356 32.2162 140.54C31.8882 140.716 31.6242 140.988 31.4242 141.356C31.2242 141.724 31.1242 142.172 31.1242 142.7C31.1242 143.236 31.2202 143.688 31.4122 144.056C31.6122 144.424 31.8762 144.7 32.2042 144.884C32.5322 145.06 32.8922 145.148 33.2842 145.148Z" fill="black"/>
<path d="M39.424 140.324V144.2C39.424 144.52 39.492 144.748 39.628 144.884C39.764 145.012 40 145.076 40.336 145.076H41.14V146H40.156C39.548 146 39.092 145.86 38.788 145.58C38.484 145.3 38.332 144.84 38.332 144.2V140.324H37.48V139.424H38.332V137.768H39.424V139.424H41.14V140.324H39.424Z" fill="black"/>
<path d="M42.0551 142.688C42.0551 142.016 42.1911 141.428 42.4631 140.924C42.7351 140.412 43.1071 140.016 43.5791 139.736C44.0591 139.456 44.5911 139.316 45.1751 139.316C45.7511 139.316 46.2511 139.44 46.6751 139.688C47.0991 139.936 47.4151 140.248 47.6231 140.624V139.424H48.7271V146H47.6231V144.776C47.4071 145.16 47.0831 145.48 46.6511 145.736C46.2271 145.984 45.7311 146.108 45.1631 146.108C44.5791 146.108 44.0511 145.964 43.5791 145.676C43.1071 145.388 42.7351 144.984 42.4631 144.464C42.1911 143.944 42.0551 143.352 42.0551 142.688ZM47.6231 142.7C47.6231 142.204 47.5231 141.772 47.3231 141.404C47.1231 141.036 46.8511 140.756 46.5071 140.564C46.1711 140.364 45.7991 140.264 45.3911 140.264C44.9831 140.264 44.6111 140.36 44.2751 140.552C43.9391 140.744 43.6711 141.024 43.4711 141.392C43.2711 141.76 43.1711 142.192 43.1711 142.688C43.1711 143.192 43.2711 143.632 43.4711 144.008C43.6711 144.376 43.9391 144.66 44.2751 144.86C44.6111 145.052 44.9831 145.148 45.3911 145.148C45.7991 145.148 46.1711 145.052 46.5071 144.86C46.8511 144.66 47.1231 144.376 47.3231 144.008C47.5231 143.632 47.6231 143.196 47.6231 142.7Z" fill="black"/>
<path d="M51.6644 137.12V146H50.5724V137.12H51.6644Z" fill="black"/>
<path d="M58.0568 140.324V144.2C58.0568 144.52 58.1248 144.748 58.2608 144.884C58.3968 145.012 58.6328 145.076 58.9688 145.076H59.7728V146H58.7888C58.1808 146 57.7248 145.86 57.4208 145.58C57.1168 145.3 56.9648 144.84 56.9648 144.2V140.324H56.1128V139.424H56.9648V137.768H58.0568V139.424H59.7728V140.324H58.0568Z" fill="black"/>
<path d="M60.6879 142.688C60.6879 142.016 60.8239 141.428 61.0959 140.924C61.3679 140.412 61.7399 140.016 62.2119 139.736C62.6919 139.456 63.2239 139.316 63.8079 139.316C64.3839 139.316 64.8839 139.44 65.3079 139.688C65.7319 139.936 66.0479 140.248 66.2559 140.624V139.424H67.3599V146H66.2559V144.776C66.0399 145.16 65.7159 145.48 65.2839 145.736C64.8599 145.984 64.3639 146.108 63.7959 146.108C63.2119 146.108 62.6839 145.964 62.2119 145.676C61.7399 145.388 61.3679 144.984 61.0959 144.464C60.8239 143.944 60.6879 143.352 60.6879 142.688ZM66.2559 142.7C66.2559 142.204 66.1559 141.772 65.9559 141.404C65.7559 141.036 65.4839 140.756 65.1399 140.564C64.8039 140.364 64.4319 140.264 64.0239 140.264C63.6159 140.264 63.2439 140.36 62.9079 140.552C62.5719 140.744 62.3039 141.024 62.1039 141.392C61.9039 141.76 61.8039 142.192 61.8039 142.688C61.8039 143.192 61.9039 143.632 62.1039 144.008C62.3039 144.376 62.5719 144.66 62.9079 144.86C63.2439 145.052 63.6159 145.148 64.0239 145.148C64.4319 145.148 64.8039 145.052 65.1399 144.86C65.4839 144.66 65.7559 144.376 65.9559 144.008C66.1559 143.632 66.2559 143.196 66.2559 142.7Z" fill="black"/>
<path d="M72.8773 146L70.2972 143.096V146H69.2053V137.12H70.2972V142.34L72.8292 139.424H74.3532L71.2572 142.7L74.3652 146H72.8773Z" fill="black"/>
<path d="M81.381 142.46C81.381 142.668 81.369 142.888 81.345 143.12H76.089C76.129 143.768 76.349 144.276 76.749 144.644C77.157 145.004 77.649 145.184 78.225 145.184C78.697 145.184 79.089 145.076 79.401 144.86C79.721 144.636 79.945 144.34 80.073 143.972H81.249C81.073 144.604 80.721 145.12 80.193 145.52C79.665 145.912 79.009 146.108 78.225 146.108C77.601 146.108 77.041 145.968 76.545 145.688C76.057 145.408 75.673 145.012 75.393 144.5C75.113 143.98 74.973 143.38 74.973 142.7C74.973 142.02 75.109 141.424 75.381 140.912C75.653 140.4 76.033 140.008 76.521 139.736C77.017 139.456 77.585 139.316 78.225 139.316C78.849 139.316 79.401 139.452 79.881 139.724C80.361 139.996 80.729 140.372 80.985 140.852C81.249 141.324 81.381 141.86 81.381 142.46ZM80.253 142.232C80.253 141.816 80.161 141.46 79.977 141.164C79.793 140.86 79.541 140.632 79.221 140.48C78.909 140.32 78.561 140.24 78.177 140.24C77.625 140.24 77.153 140.416 76.761 140.768C76.377 141.12 76.157 141.608 76.101 142.232H80.253Z" fill="black"/>
<path d="M86.0264 139.304C86.8264 139.304 87.4744 139.548 87.9704 140.036C88.4664 140.516 88.7144 141.212 88.7144 142.124V146H87.6344V142.28C87.6344 141.624 87.4704 141.124 87.1424 140.78C86.8144 140.428 86.3664 140.252 85.7984 140.252C85.2224 140.252 84.7624 140.432 84.4184 140.792C84.0824 141.152 83.9144 141.676 83.9144 142.364V146H82.8224V139.424H83.9144V140.36C84.1304 140.024 84.4224 139.764 84.7904 139.58C85.1664 139.396 85.5784 139.304 86.0264 139.304Z" fill="black"/>
<path d="M96.0254 146.108C95.5214 146.108 95.0694 146.024 94.6694 145.856C94.2694 145.68 93.9534 145.44 93.7214 145.136C93.4894 144.824 93.3614 144.468 93.3374 144.068H94.4654C94.4974 144.396 94.6494 144.664 94.9214 144.872C95.2014 145.08 95.5654 145.184 96.0134 145.184C96.4294 145.184 96.7574 145.092 96.9974 144.908C97.2374 144.724 97.3574 144.492 97.3574 144.212C97.3574 143.924 97.2294 143.712 96.9734 143.576C96.7174 143.432 96.3214 143.292 95.7854 143.156C95.2974 143.028 94.8974 142.9 94.5854 142.772C94.2814 142.636 94.0174 142.44 93.7934 142.184C93.5774 141.92 93.4694 141.576 93.4694 141.152C93.4694 140.816 93.5694 140.508 93.7694 140.228C93.9694 139.948 94.2534 139.728 94.6214 139.568C94.9894 139.4 95.4094 139.316 95.8814 139.316C96.6094 139.316 97.1974 139.5 97.6454 139.868C98.0934 140.236 98.3334 140.74 98.3654 141.38H97.2734C97.2494 141.036 97.1094 140.76 96.8534 140.552C96.6054 140.344 96.2694 140.24 95.8454 140.24C95.4534 140.24 95.1414 140.324 94.9094 140.492C94.6774 140.66 94.5614 140.88 94.5614 141.152C94.5614 141.368 94.6294 141.548 94.7654 141.692C94.9094 141.828 95.0854 141.94 95.2934 142.028C95.5094 142.108 95.8054 142.2 96.1814 142.304C96.6534 142.432 97.0374 142.56 97.3334 142.688C97.6294 142.808 97.8814 142.992 98.0894 143.24C98.3054 143.488 98.4174 143.812 98.4254 144.212C98.4254 144.572 98.3254 144.896 98.1254 145.184C97.9254 145.472 97.6414 145.7 97.2734 145.868C96.9134 146.028 96.4974 146.108 96.0254 146.108Z" fill="black"/>
<path d="M105.967 142.46C105.967 142.668 105.955 142.888 105.931 143.12H100.675C100.715 143.768 100.935 144.276 101.335 144.644C101.743 145.004 102.235 145.184 102.811 145.184C103.283 145.184 103.675 145.076 103.987 144.86C104.307 144.636 104.531 144.34 104.659 143.972H105.835C105.659 144.604 105.307 145.12 104.779 145.52C104.251 145.912 103.595 146.108 102.811 146.108C102.187 146.108 101.627 145.968 101.131 145.688C100.643 145.408 100.259 145.012 99.979 144.5C99.699 143.98 99.559 143.38 99.559 142.7C99.559 142.02 99.695 141.424 99.967 140.912C100.239 140.4 100.619 140.008 101.107 139.736C101.603 139.456 102.171 139.316 102.811 139.316C103.435 139.316 103.987 139.452 104.467 139.724C104.947 139.996 105.315 140.372 105.571 140.852C105.835 141.324 105.967 141.86 105.967 142.46ZM104.839 142.232C104.839 141.816 104.747 141.46 104.563 141.164C104.379 140.86 104.127 140.632 103.807 140.48C103.495 140.32 103.147 140.24 102.763 140.24C102.211 140.24 101.739 140.416 101.347 140.768C100.963 141.12 100.743 141.608 100.687 142.232H104.839Z" fill="black"/>
<path d="M107 142.688C107 142.016 107.136 141.428 107.408 140.924C107.68 140.412 108.052 140.016 108.524 139.736C109.004 139.456 109.536 139.316 110.12 139.316C110.696 139.316 111.196 139.44 111.62 139.688C112.044 139.936 112.36 140.248 112.568 140.624V139.424H113.672V146H112.568V144.776C112.352 145.16 112.028 145.48 111.596 145.736C111.172 145.984 110.676 146.108 110.108 146.108C109.524 146.108 108.996 145.964 108.524 145.676C108.052 145.388 107.68 144.984 107.408 144.464C107.136 143.944 107 143.352 107 142.688ZM112.568 142.7C112.568 142.204 112.468 141.772 112.268 141.404C112.068 141.036 111.796 140.756 111.452 140.564C111.116 140.364 110.744 140.264 110.336 140.264C109.928 140.264 109.556 140.36 109.22 140.552C108.884 140.744 108.616 141.024 108.416 141.392C108.216 141.76 108.116 142.192 108.116 142.688C108.116 143.192 108.216 143.632 108.416 144.008C108.616 144.376 108.884 144.66 109.22 144.86C109.556 145.052 109.928 145.148 110.336 145.148C110.744 145.148 111.116 145.052 111.452 144.86C111.796 144.66 112.068 144.376 112.268 144.008C112.468 143.632 112.568 143.196 112.568 142.7Z" fill="black"/>
<path d="M116.85 140.324V144.2C116.85 144.52 116.918 144.748 117.054 144.884C117.19 145.012 117.426 145.076 117.762 145.076H118.566V146H117.582C116.974 146 116.518 145.86 116.214 145.58C115.91 145.3 115.758 144.84 115.758 144.2V140.324H114.906V139.424H115.758V137.768H116.85V139.424H118.566V140.324H116.85Z" fill="black"/>
<path d="M24.32 106.112C24.4 104.512 24.96 103.28 26 102.416C27.056 101.536 28.44 101.096 30.152 101.096C31.32 101.096 32.32 101.304 33.152 101.72C33.984 102.12 34.608 102.672 35.024 103.376C35.456 104.064 35.672 104.848 35.672 105.728C35.672 106.736 35.408 107.592 34.88 108.296C34.368 108.984 33.752 109.448 33.032 109.688V109.784C33.96 110.072 34.68 110.584 35.192 111.32C35.72 112.056 35.984 113 35.984 114.152C35.984 115.112 35.76 115.968 35.312 116.72C34.88 117.472 34.232 118.064 33.368 118.496C32.52 118.912 31.496 119.12 30.296 119.12C28.488 119.12 27.016 118.664 25.88 117.752C24.744 116.84 24.144 115.496 24.08 113.72H27.344C27.376 114.504 27.64 115.136 28.136 115.616C28.648 116.08 29.344 116.312 30.224 116.312C31.04 116.312 31.664 116.088 32.096 115.64C32.544 115.176 32.768 114.584 32.768 113.864C32.768 112.904 32.464 112.216 31.856 111.8C31.248 111.384 30.304 111.176 29.024 111.176H28.328V108.416H29.024C31.296 108.416 32.432 107.656 32.432 106.136C32.432 105.448 32.224 104.912 31.808 104.528C31.408 104.144 30.824 103.952 30.056 103.952C29.304 103.952 28.72 104.16 28.304 104.576C27.904 104.976 27.672 105.488 27.608 106.112H24.32Z" fill="black"/>
<path d="M47.7112 105.872C47.5512 105.2 47.2712 104.696 46.8712 104.36C46.4872 104.024 45.9272 103.856 45.1912 103.856C44.0872 103.856 43.2712 104.304 42.7432 105.2C42.2312 106.08 41.9672 107.52 41.9512 109.52C42.3352 108.88 42.8952 108.384 43.6312 108.032C44.3672 107.664 45.1672 107.48 46.0312 107.48C47.0712 107.48 47.9912 107.704 48.7912 108.152C49.5912 108.6 50.2152 109.256 50.6632 110.12C51.1112 110.968 51.3352 111.992 51.3352 113.192C51.3352 114.328 51.1032 115.344 50.6392 116.24C50.1912 117.12 49.5272 117.808 48.6472 118.304C47.7672 118.8 46.7192 119.048 45.5032 119.048C43.8392 119.048 42.5272 118.68 41.5672 117.944C40.6232 117.208 39.9592 116.184 39.5752 114.872C39.2072 113.544 39.0232 111.912 39.0232 109.976C39.0232 107.048 39.5272 104.84 40.5352 103.352C41.5432 101.848 43.1352 101.096 45.3112 101.096C46.9912 101.096 48.2952 101.552 49.2232 102.464C50.1512 103.376 50.6872 104.512 50.8312 105.872H47.7112ZM45.2632 110.24C44.4152 110.24 43.7032 110.488 43.1272 110.984C42.5512 111.48 42.2632 112.2 42.2632 113.144C42.2632 114.088 42.5272 114.832 43.0552 115.376C43.5992 115.92 44.3592 116.192 45.3352 116.192C46.1992 116.192 46.8792 115.928 47.3752 115.4C47.8872 114.872 48.1432 114.16 48.1432 113.264C48.1432 112.336 47.8952 111.6 47.3992 111.056C46.9192 110.512 46.2072 110.24 45.2632 110.24Z" fill="black"/>
<path d="M55.8628 119.168C55.2548 119.168 54.7507 118.984 54.3507 118.616C53.9667 118.232 53.7747 117.76 53.7747 117.2C53.7747 116.64 53.9667 116.176 54.3507 115.808C54.7507 115.424 55.2548 115.232 55.8628 115.232C56.4548 115.232 56.9428 115.424 57.3268 115.808C57.7108 116.176 57.9028 116.64 57.9028 117.2C57.9028 117.76 57.7108 118.232 57.3268 118.616C56.9428 118.984 56.4548 119.168 55.8628 119.168Z" fill="black"/>
<path d="M59.8171 104.6V101.504H65.6011V119H62.1451V104.6H59.8171Z" fill="black"/>
<path d="M77.1764 119L72.6644 113.336V119H69.3044V101.24H72.6644V111.344L77.1284 105.704H81.4964L75.6404 112.376L81.5444 119H77.1764Z" fill="black"/>
<path d="M109.456 44.3198V43.3238H111.712V51.9998H110.608V44.3198H109.456Z" fill="black"/>
<path d="M113.588 47.5718C113.588 46.1958 113.812 45.1238 114.26 44.3558C114.708 43.5798 115.492 43.1918 116.612 43.1918C117.724 43.1918 118.504 43.5798 118.952 44.3558C119.4 45.1238 119.624 46.1958 119.624 47.5718C119.624 48.9718 119.4 50.0598 118.952 50.8358C118.504 51.6118 117.724 51.9998 116.612 51.9998C115.492 51.9998 114.708 51.6118 114.26 50.8358C113.812 50.0598 113.588 48.9718 113.588 47.5718ZM118.544 47.5718C118.544 46.8758 118.496 46.2878 118.4 45.8078C118.312 45.3198 118.124 44.9278 117.836 44.6318C117.556 44.3358 117.148 44.1878 116.612 44.1878C116.068 44.1878 115.652 44.3358 115.364 44.6318C115.084 44.9278 114.896 45.3198 114.8 45.8078C114.712 46.2878 114.668 46.8758 114.668 47.5718C114.668 48.2918 114.712 48.8958 114.8 49.3838C114.896 49.8718 115.084 50.2638 115.364 50.5598C115.652 50.8558 116.068 51.0038 116.612 51.0038C117.148 51.0038 117.556 50.8558 117.836 50.5598C118.124 50.2638 118.312 49.8718 118.4 49.3838C118.496 48.8958 118.544 48.2918 118.544 47.5718Z" fill="black"/>
<path d="M120.883 45.2798C120.883 44.7358 121.047 44.3038 121.375 43.9838C121.703 43.6558 122.123 43.4918 122.635 43.4918C123.147 43.4918 123.567 43.6558 123.895 43.9838C124.223 44.3038 124.387 44.7358 124.387 45.2798C124.387 45.8318 124.223 46.2718 123.895 46.5998C123.567 46.9198 123.147 47.0798 122.635 47.0798C122.123 47.0798 121.703 46.9198 121.375 46.5998C121.047 46.2718 120.883 45.8318 120.883 45.2798ZM127.891 43.6238L123.031 51.9998H121.951L126.811 43.6238H127.891ZM122.635 44.1638C122.363 44.1638 122.147 44.2598 121.987 44.4518C121.835 44.6358 121.759 44.9118 121.759 45.2798C121.759 45.6478 121.835 45.9278 121.987 46.1198C122.147 46.3118 122.363 46.4078 122.635 46.4078C122.907 46.4078 123.123 46.3118 123.283 46.1198C123.443 45.9198 123.523 45.6398 123.523 45.2798C123.523 44.9118 123.443 44.6358 123.283 44.4518C123.123 44.2598 122.907 44.1638 122.635 44.1638ZM125.479 50.3438C125.479 49.7918 125.643 49.3558 125.971 49.0358C126.299 48.7078 126.719 48.5438 127.231 48.5438C127.743 48.5438 128.159 48.7078 128.479 49.0358C128.807 49.3558 128.971 49.7918 128.971 50.3438C128.971 50.8878 128.807 51.3238 128.479 51.6518C128.159 51.9798 127.743 52.1438 127.231 52.1438C126.719 52.1438 126.299 51.9838 125.971 51.6638C125.643 51.3358 125.479 50.8958 125.479 50.3438ZM127.219 49.2278C126.947 49.2278 126.731 49.3238 126.571 49.5158C126.411 49.6998 126.331 49.9758 126.331 50.3438C126.331 50.7038 126.411 50.9798 126.571 51.1718C126.731 51.3558 126.947 51.4478 127.219 51.4478C127.491 51.4478 127.707 51.3558 127.867 51.1718C128.027 50.9798 128.107 50.7038 128.107 50.3438C128.107 49.9758 128.027 49.6998 127.867 49.5158C127.707 49.3238 127.491 49.2278 127.219 49.2278Z" fill="black"/>
<path d="M96.0004 47.1208L92.2879 50.8333L91.2274 49.7728L96.0004 44.9998L100.773 49.7728L99.7129 50.8333L96.0004 47.1208Z" fill="#62CA76"/>
<path d="M23 33.9998C23 27.9246 27.9249 22.9998 34 22.9998H62C68.0751 22.9998 73 27.9246 73 33.9998V61.9998C73 68.0749 68.0751 72.9998 62 72.9998H34C27.9249 72.9998 23 68.0749 23 61.9998V33.9998Z" fill="#FF553E" fill-opacity="0.15"/>
<path d="M37.334 52.3331C37.334 50.565 38.0364 48.8693 39.2866 47.6191C40.5368 46.3688 42.2325 45.6665 44.0006 45.6665C45.7688 45.6665 47.4645 46.3688 48.7147 47.6191C49.9649 48.8693 50.6673 50.565 50.6673 52.3331H49.0006C49.0006 51.007 48.4739 49.7353 47.5362 48.7976C46.5985 47.8599 45.3267 47.3331 44.0006 47.3331C42.6746 47.3331 41.4028 47.8599 40.4651 48.7976C39.5274 49.7353 39.0007 51.007 39.0007 52.3331H37.334ZM44.0006 44.8331C41.2381 44.8331 39.0007 42.5956 39.0007 39.8331C39.0007 37.0706 41.2381 34.8331 44.0006 34.8331C46.7631 34.8331 49.0006 37.0706 49.0006 39.8331C49.0006 42.5956 46.7631 44.8331 44.0006 44.8331ZM44.0006 43.1665C45.8423 43.1665 47.334 41.6748 47.334 39.8331C47.334 37.9915 45.8423 36.4998 44.0006 36.4998C42.159 36.4998 40.6673 37.9915 40.6673 39.8331C40.6673 41.6748 42.159 43.1665 44.0006 43.1665Z" fill="#FF553E"/>
</svg>
