<svg width="387" height="91" viewBox="0 0 387 91" fill="none" xmlns="http://www.w3.org/2000/svg">
<path d="M0 30C0 13.4315 13.4315 0 30 0H356.75C373.319 0 386.75 13.4315 386.75 30V61C386.75 77.5685 373.319 91 356.75 91H30C13.4315 91 0 77.5685 0 61V30Z" fill="white"/>
<rect opacity="0.05" x="316.225" y="22.75" width="45.5" height="45.5" rx="13" fill="#FF553E"/>
<g clip-path="url(#clip0_1_736)">
<path d="M331.391 54.9792C331.391 52.968 332.19 51.0392 333.612 49.617C335.034 48.1949 336.963 47.3959 338.974 47.3959C340.985 47.3959 342.914 48.1949 344.336 49.617C345.758 51.0392 346.557 52.968 346.557 54.9792H344.661C344.661 53.4708 344.062 52.0242 342.996 50.9576C341.929 49.891 340.482 49.2917 338.974 49.2917C337.466 49.2917 336.019 49.891 334.952 50.9576C333.886 52.0242 333.286 53.4708 333.286 54.9792H331.391ZM338.974 46.448C335.832 46.448 333.286 43.9028 333.286 40.7605C333.286 37.6182 335.832 35.073 338.974 35.073C342.116 35.073 344.661 37.6182 344.661 40.7605C344.661 43.9028 342.116 46.448 338.974 46.448ZM338.974 44.5522C341.069 44.5522 342.766 42.8554 342.766 40.7605C342.766 38.6656 341.069 36.9688 338.974 36.9688C336.879 36.9688 335.182 38.6656 335.182 40.7605C335.182 42.8554 336.879 44.5522 338.974 44.5522Z" fill="#FF553E"/>
</g>
<rect opacity="0.05" x="218.4" y="22.75" width="45.5" height="45.5" rx="13" fill="#FF553E"/>
<g clip-path="url(#clip1_1_736)">
<path d="M245.891 36.9688H249.682C249.934 36.9688 250.175 37.0687 250.353 37.2465C250.53 37.4242 250.63 37.6653 250.63 37.9167V53.0834C250.63 53.3348 250.53 53.5759 250.353 53.7537C250.175 53.9315 249.934 54.0313 249.682 54.0313H232.62C232.368 54.0313 232.127 53.9315 231.95 53.7537C231.772 53.5759 231.672 53.3348 231.672 53.0834V37.9167C231.672 37.6653 231.772 37.4242 231.95 37.2465C232.127 37.0687 232.368 36.9688 232.62 36.9688H236.411V35.073H238.307V36.9688H243.995V35.073H245.891V36.9688ZM243.995 38.8647H238.307V40.7605H236.411V38.8647H233.568V42.6563H248.734V38.8647H245.891V40.7605H243.995V38.8647ZM248.734 44.5522H233.568V52.1355H248.734V44.5522Z" fill="#FF553E"/>
</g>
<rect opacity="0.05" x="120.574" y="22.75" width="45.5" height="45.5" rx="13" fill="#FF553E"/>
<g clip-path="url(#clip2_1_736)">
<path d="M135.742 50.2396V54.9792H133.846V36.9688H151.987C152.07 36.9686 152.152 36.9903 152.224 37.0317C152.296 37.073 152.356 37.1326 152.397 37.2044C152.439 37.2763 152.461 37.3578 152.462 37.4409C152.462 37.5239 152.44 37.6057 152.399 37.6778L149.012 43.6042L152.399 49.5305C152.44 49.6027 152.462 49.6844 152.462 49.7675C152.461 49.8505 152.439 49.9321 152.397 50.0039C152.356 50.0757 152.296 50.1353 152.224 50.1767C152.152 50.218 152.07 50.2397 151.987 50.2396H135.742ZM135.742 38.8646V48.3438H149.538L146.828 43.6042L149.538 38.8646H135.742Z" fill="#FF553E"/>
</g>
<rect x="22.75" y="22.75" width="45.5" height="45.5" rx="13" fill="#FF553E"/>
<g clip-path="url(#clip3_1_736)">
<path d="M49.2917 50.2396V49.2917H46.4479V46.4479H49.2917V48.3438H51.1875V50.2396H50.2396V52.1354H48.3438V54.0313H46.4479V51.1875H48.3438V50.2396H49.2917ZM54.0313 54.0313H50.2396V52.1354H52.1354V50.2396H54.0313V54.0313ZM36.9688 36.9688H44.5521V44.5521H36.9688V36.9688ZM38.8646 38.8646V42.6563H42.6563V38.8646H38.8646ZM46.4479 36.9688H54.0313V44.5521H46.4479V36.9688ZM48.3438 38.8646V42.6563H52.1354V38.8646H48.3438ZM36.9688 46.4479H44.5521V54.0313H36.9688V46.4479ZM38.8646 48.3438V52.1354H42.6563V48.3438H38.8646ZM51.1875 46.4479H54.0313V48.3438H51.1875V46.4479ZM39.8125 39.8125H41.7083V41.7083H39.8125V39.8125ZM39.8125 49.2917H41.7083V51.1875H39.8125V49.2917ZM49.2917 39.8125H51.1875V41.7083H49.2917V39.8125Z" fill="white"/>
</g>
<defs>
<clipPath id="clip0_1_736">
<rect width="22.75" height="22.75" fill="white" transform="translate(327.6 34.125)"/>
</clipPath>
<clipPath id="clip1_1_736">
<rect width="22.75" height="22.75" fill="white" transform="translate(229.775 34.125)"/>
</clipPath>
<clipPath id="clip2_1_736">
<rect width="22.75" height="22.75" fill="white" transform="translate(131.949 34.125)"/>
</clipPath>
<clipPath id="clip3_1_736">
<rect width="22.75" height="22.75" fill="white" transform="translate(34.125 34.125)"/>
</clipPath>
</defs>
</svg>
