<svg width="350" height="228" viewBox="0 0 350 228" fill="none" xmlns="http://www.w3.org/2000/svg">
<rect width="349.355" height="228" rx="19" fill="white"/>
<line x1="48.6445" y1="183.871" x2="48.6445" y2="68.0324" stroke="#D26D60" stroke-opacity="0.3" stroke-width="2"/>
<line x1="87.2578" y1="183.871" x2="87.2578" y2="68.0324" stroke="#D26D60" stroke-opacity="0.3" stroke-width="2"/>
<line x1="125.871" y1="183.871" x2="125.871" y2="68.0324" stroke="#D26D60" stroke-opacity="0.3" stroke-width="2"/>
<line x1="173.678" y1="183.871" x2="173.678" y2="68.0324" stroke="#D26D60" stroke-opacity="0.3" stroke-width="2"/>
<line x1="219.645" y1="183.871" x2="219.645" y2="68.0324" stroke="#D26D60" stroke-opacity="0.3" stroke-width="2"/>
<line x1="267.451" y1="183.871" x2="267.451" y2="68.0324" stroke="#D26D60" stroke-opacity="0.3" stroke-width="2"/>
<path opacity="0.2" fill-rule="evenodd" clip-rule="evenodd" d="M323.613 184.639H25.7422V152.621C25.7422 152.621 26.8467 144.516 38.28 144.516C49.7132 144.516 50.2781 143.145 55.4354 139.119C60.5927 135.094 70.2876 140.916 78.3567 139.119C86.4257 137.322 85.7891 126.942 100.023 127.97C114.257 128.998 113.129 116.084 129.772 113.189C146.416 110.294 170.456 114.654 179.711 107.999C188.966 101.345 194.769 95.7474 219.143 95.7474C243.517 95.7474 243.325 92.5431 262.446 83.0647C281.568 73.5863 288.796 83.3248 301.271 87.9451C313.745 92.5655 323.613 80.779 323.613 80.779V184.639Z" fill="#FFC6BE"/>
<path opacity="0.6" d="M30.0822 37.8399C29.4009 37.8399 28.7849 37.7233 28.2342 37.4899C27.6929 37.2566 27.2635 36.9206 26.9462 36.4819C26.6289 36.0433 26.4655 35.5253 26.4562 34.9279H28.5562C28.5842 35.3293 28.7242 35.6466 28.9762 35.8799C29.2375 36.1133 29.5922 36.2299 30.0402 36.2299C30.4975 36.2299 30.8569 36.1226 31.1182 35.9079C31.3795 35.6839 31.5102 35.3946 31.5102 35.0399C31.5102 34.7506 31.4215 34.5126 31.2442 34.3259C31.0669 34.1393 30.8429 33.9946 30.5722 33.8919C30.3109 33.7799 29.9469 33.6586 29.4802 33.5279C28.8455 33.3413 28.3275 33.1593 27.9262 32.9819C27.5342 32.7953 27.1935 32.5199 26.9042 32.1559C26.6242 31.7826 26.4842 31.2879 26.4842 30.6719C26.4842 30.0933 26.6289 29.5893 26.9182 29.1599C27.2075 28.7306 27.6135 28.4039 28.1362 28.1799C28.6589 27.9466 29.2562 27.8299 29.9282 27.8299C30.9362 27.8299 31.7529 28.0773 32.3782 28.5719C33.0129 29.0573 33.3629 29.7386 33.4282 30.6159H31.2722C31.2535 30.2799 31.1089 30.0046 30.8382 29.7899C30.5769 29.5659 30.2269 29.4539 29.7882 29.4539C29.4055 29.4539 29.0975 29.5519 28.8642 29.7479C28.6402 29.9439 28.5282 30.2286 28.5282 30.6019C28.5282 30.8633 28.6122 31.0826 28.7802 31.2599C28.9575 31.4279 29.1722 31.5679 29.4242 31.6799C29.6855 31.7826 30.0495 31.9039 30.5162 32.0439C31.1509 32.2306 31.6689 32.4173 32.0702 32.6039C32.4715 32.7906 32.8169 33.0706 33.1062 33.4439C33.3955 33.8173 33.5402 34.3073 33.5402 34.9139C33.5402 35.4366 33.4049 35.9219 33.1342 36.3699C32.8635 36.8179 32.4669 37.1773 31.9442 37.4479C31.4215 37.7093 30.8009 37.8399 30.0822 37.8399ZM42.4494 33.6959C42.4494 33.9759 42.4308 34.2279 42.3934 34.4519H36.7234C36.7701 35.0119 36.9661 35.4506 37.3114 35.7679C37.6568 36.0853 38.0814 36.2439 38.5854 36.2439C39.3134 36.2439 39.8314 35.9313 40.1394 35.3059H42.2534C42.0294 36.0526 41.6001 36.6686 40.9654 37.1539C40.3308 37.6299 39.5514 37.8679 38.6274 37.8679C37.8808 37.8679 37.2088 37.7046 36.6114 37.3779C36.0234 37.0419 35.5614 36.5706 35.2254 35.9639C34.8988 35.3573 34.7354 34.6573 34.7354 33.8639C34.7354 33.0613 34.8988 32.3566 35.2254 31.7499C35.5521 31.1433 36.0094 30.6766 36.5974 30.3499C37.1854 30.0233 37.8621 29.8599 38.6274 29.8599C39.3648 29.8599 40.0228 30.0186 40.6014 30.3359C41.1894 30.6533 41.6421 31.1059 41.9594 31.6939C42.2861 32.2726 42.4494 32.9399 42.4494 33.6959ZM40.4194 33.1359C40.4101 32.6319 40.2281 32.2306 39.8734 31.9319C39.5188 31.6239 39.0848 31.4699 38.5714 31.4699C38.0861 31.4699 37.6754 31.6193 37.3394 31.9179C37.0128 32.2073 36.8121 32.6133 36.7374 33.1359H40.4194ZM46.8481 37.8679C46.2134 37.8679 45.6441 37.7559 45.1401 37.5319C44.6361 37.2986 44.2347 36.9859 43.9361 36.5939C43.6467 36.2019 43.4881 35.7679 43.4601 35.2919H45.4341C45.4714 35.5906 45.6161 35.8379 45.8681 36.0339C46.1294 36.2299 46.4514 36.3279 46.8341 36.3279C47.2074 36.3279 47.4967 36.2533 47.7021 36.1039C47.9167 35.9546 48.0241 35.7633 48.0241 35.5299C48.0241 35.2779 47.8934 35.0913 47.6321 34.9699C47.3801 34.8393 46.9741 34.6993 46.4141 34.5499C45.8354 34.4099 45.3594 34.2653 44.9861 34.1159C44.6221 33.9666 44.3047 33.7379 44.0341 33.4299C43.7727 33.1219 43.6421 32.7066 43.6421 32.1839C43.6421 31.7546 43.7634 31.3626 44.0061 31.0079C44.2581 30.6533 44.6127 30.3733 45.0701 30.1679C45.5367 29.9626 46.0827 29.8599 46.7081 29.8599C47.6321 29.8599 48.3694 30.0933 48.9201 30.5599C49.4707 31.0173 49.7741 31.6379 49.8301 32.4219H47.9541C47.9261 32.1139 47.7954 31.8713 47.5621 31.6939C47.3381 31.5073 47.0347 31.4139 46.6521 31.4139C46.2974 31.4139 46.0221 31.4793 45.8261 31.6099C45.6394 31.7406 45.5461 31.9226 45.5461 32.1559C45.5461 32.4173 45.6767 32.6179 45.9381 32.7579C46.1994 32.8886 46.6054 33.0239 47.1561 33.1639C47.7161 33.3039 48.1781 33.4486 48.5421 33.5979C48.9061 33.7473 49.2187 33.9806 49.4801 34.2979C49.7507 34.6059 49.8907 35.0166 49.9001 35.5299C49.9001 35.9779 49.7741 36.3793 49.5221 36.7339C49.2794 37.0886 48.9247 37.3686 48.4581 37.5739C48.0007 37.7699 47.4641 37.8679 46.8481 37.8679ZM54.477 37.8679C53.8423 37.8679 53.273 37.7559 52.769 37.5319C52.265 37.2986 51.8636 36.9859 51.565 36.5939C51.2756 36.2019 51.117 35.7679 51.089 35.2919H53.063C53.1003 35.5906 53.245 35.8379 53.497 36.0339C53.7583 36.2299 54.0803 36.3279 54.463 36.3279C54.8363 36.3279 55.1256 36.2533 55.331 36.1039C55.5456 35.9546 55.653 35.7633 55.653 35.5299C55.653 35.2779 55.5223 35.0913 55.261 34.9699C55.009 34.8393 54.603 34.6993 54.043 34.5499C53.4643 34.4099 52.9883 34.2653 52.615 34.1159C52.251 33.9666 51.9336 33.7379 51.663 33.4299C51.4016 33.1219 51.271 32.7066 51.271 32.1839C51.271 31.7546 51.3923 31.3626 51.635 31.0079C51.887 30.6533 52.2416 30.3733 52.699 30.1679C53.1656 29.9626 53.7116 29.8599 54.337 29.8599C55.261 29.8599 55.9983 30.0933 56.549 30.5599C57.0996 31.0173 57.403 31.6379 57.459 32.4219H55.583C55.555 32.1139 55.4243 31.8713 55.191 31.6939C54.967 31.5073 54.6636 31.4139 54.281 31.4139C53.9263 31.4139 53.651 31.4793 53.455 31.6099C53.2683 31.7406 53.175 31.9226 53.175 32.1559C53.175 32.4173 53.3056 32.6179 53.567 32.7579C53.8283 32.8886 54.2343 33.0239 54.785 33.1639C55.345 33.3039 55.807 33.4486 56.171 33.5979C56.535 33.7473 56.8476 33.9806 57.109 34.2979C57.3796 34.6059 57.5196 35.0166 57.529 35.5299C57.529 35.9779 57.403 36.3793 57.151 36.7339C56.9083 37.0886 56.5536 37.3686 56.087 37.5739C55.6296 37.7699 55.093 37.8679 54.477 37.8679ZM60.1319 29.0619C59.7865 29.0619 59.4972 28.9546 59.2639 28.7399C59.0399 28.5159 58.9279 28.2406 58.9279 27.9139C58.9279 27.5873 59.0399 27.3166 59.2639 27.1019C59.4972 26.8779 59.7865 26.7659 60.1319 26.7659C60.4772 26.7659 60.7619 26.8779 60.9859 27.1019C61.2192 27.3166 61.3359 27.5873 61.3359 27.9139C61.3359 28.2406 61.2192 28.5159 60.9859 28.7399C60.7619 28.9546 60.4772 29.0619 60.1319 29.0619ZM61.0979 29.9859V37.7419H59.1379V29.9859H61.0979ZM66.4784 37.8679C65.7317 37.8679 65.0597 37.7046 64.4624 37.3779C63.865 37.0419 63.3937 36.5706 63.0484 35.9639C62.7124 35.3573 62.5444 34.6573 62.5444 33.8639C62.5444 33.0706 62.717 32.3706 63.0624 31.7639C63.417 31.1573 63.8977 30.6906 64.5044 30.3639C65.111 30.0279 65.7877 29.8599 66.5344 29.8599C67.281 29.8599 67.9577 30.0279 68.5644 30.3639C69.171 30.6906 69.647 31.1573 69.9924 31.7639C70.347 32.3706 70.5244 33.0706 70.5244 33.8639C70.5244 34.6573 70.3424 35.3573 69.9784 35.9639C69.6237 36.5706 69.1384 37.0419 68.5224 37.3779C67.9157 37.7046 67.2344 37.8679 66.4784 37.8679ZM66.4784 36.1599C66.833 36.1599 67.1644 36.0759 67.4724 35.9079C67.7897 35.7306 68.0417 35.4693 68.2284 35.1239C68.415 34.7786 68.5084 34.3586 68.5084 33.8639C68.5084 33.1266 68.3124 32.5619 67.9204 32.1699C67.5377 31.7686 67.0664 31.5679 66.5064 31.5679C65.9464 31.5679 65.475 31.7686 65.0924 32.1699C64.719 32.5619 64.5324 33.1266 64.5324 33.8639C64.5324 34.6013 64.7144 35.1706 65.0784 35.5719C65.4517 35.9639 65.9184 36.1599 66.4784 36.1599ZM76.2601 29.8739C77.1841 29.8739 77.9308 30.1679 78.5001 30.7559C79.0694 31.3346 79.3541 32.1466 79.3541 33.1919V37.7419H77.3941V33.4579C77.3941 32.8419 77.2401 32.3706 76.9321 32.0439C76.6241 31.7079 76.2041 31.5399 75.6721 31.5399C75.1308 31.5399 74.7014 31.7079 74.3841 32.0439C74.0761 32.3706 73.9221 32.8419 73.9221 33.4579V37.7419H71.9621V29.9859H73.9221V30.9519C74.1834 30.6159 74.5148 30.3546 74.9161 30.1679C75.3268 29.9719 75.7748 29.8739 76.2601 29.8739ZM87.9979 37.8679C87.2512 37.8679 86.5792 37.7046 85.9819 37.3779C85.3846 37.0419 84.9132 36.5706 84.5679 35.9639C84.2319 35.3573 84.0639 34.6573 84.0639 33.8639C84.0639 33.0706 84.2366 32.3706 84.5819 31.7639C84.9366 31.1573 85.4172 30.6906 86.0239 30.3639C86.6306 30.0279 87.3072 29.8599 88.0539 29.8599C88.8006 29.8599 89.4772 30.0279 90.0839 30.3639C90.6906 30.6906 91.1666 31.1573 91.5119 31.7639C91.8666 32.3706 92.0439 33.0706 92.0439 33.8639C92.0439 34.6573 91.8619 35.3573 91.4979 35.9639C91.1432 36.5706 90.6579 37.0419 90.0419 37.3779C89.4352 37.7046 88.7539 37.8679 87.9979 37.8679ZM87.9979 36.1599C88.3526 36.1599 88.6839 36.0759 88.9919 35.9079C89.3092 35.7306 89.5612 35.4693 89.7479 35.1239C89.9346 34.7786 90.0279 34.3586 90.0279 33.8639C90.0279 33.1266 89.8319 32.5619 89.4399 32.1699C89.0572 31.7686 88.5859 31.5679 88.0259 31.5679C87.4659 31.5679 86.9946 31.7686 86.6119 32.1699C86.2386 32.5619 86.0519 33.1266 86.0519 33.8639C86.0519 34.6013 86.2339 35.1706 86.5979 35.5719C86.9712 35.9639 87.4379 36.1599 87.9979 36.1599ZM96.7156 35.9359L98.6756 29.9859H100.762L97.8916 37.7419H95.5116L92.6556 29.9859H94.7556L96.7156 35.9359ZM109.072 33.6959C109.072 33.9759 109.054 34.2279 109.016 34.4519H103.346C103.393 35.0119 103.589 35.4506 103.934 35.7679C104.28 36.0853 104.704 36.2439 105.208 36.2439C105.936 36.2439 106.454 35.9313 106.762 35.3059H108.876C108.652 36.0526 108.223 36.6686 107.588 37.1539C106.954 37.6299 106.174 37.8679 105.25 37.8679C104.504 37.8679 103.832 37.7046 103.234 37.3779C102.646 37.0419 102.184 36.5706 101.848 35.9639C101.522 35.3573 101.358 34.6573 101.358 33.8639C101.358 33.0613 101.522 32.3566 101.848 31.7499C102.175 31.1433 102.632 30.6766 103.22 30.3499C103.808 30.0233 104.485 29.8599 105.25 29.8599C105.988 29.8599 106.646 30.0186 107.224 30.3359C107.812 30.6533 108.265 31.1059 108.582 31.6939C108.909 32.2726 109.072 32.9399 109.072 33.6959ZM107.042 33.1359C107.033 32.6319 106.851 32.2306 106.496 31.9319C106.142 31.6239 105.708 31.4699 105.194 31.4699C104.709 31.4699 104.298 31.6193 103.962 31.9179C103.636 32.2073 103.435 32.6133 103.36 33.1359H107.042ZM112.463 31.1899C112.715 30.7793 113.042 30.4573 113.443 30.2239C113.854 29.9906 114.32 29.8739 114.843 29.8739V31.9319H114.325C113.709 31.9319 113.242 32.0766 112.925 32.3659C112.617 32.6553 112.463 33.1593 112.463 33.8779V37.7419H110.503V29.9859H112.463V31.1899ZM119.397 35.9359L121.357 29.9859H123.443L120.573 37.7419H118.193L115.337 29.9859H117.437L119.397 35.9359ZM125.538 29.0619C125.193 29.0619 124.903 28.9546 124.67 28.7399C124.446 28.5159 124.334 28.2406 124.334 27.9139C124.334 27.5873 124.446 27.3166 124.67 27.1019C124.903 26.8779 125.193 26.7659 125.538 26.7659C125.883 26.7659 126.168 26.8779 126.392 27.1019C126.625 27.3166 126.742 27.5873 126.742 27.9139C126.742 28.2406 126.625 28.5159 126.392 28.7399C126.168 28.9546 125.883 29.0619 125.538 29.0619ZM126.504 29.9859V37.7419H124.544V29.9859H126.504ZM135.651 33.6959C135.651 33.9759 135.632 34.2279 135.595 34.4519H129.925C129.971 35.0119 130.167 35.4506 130.513 35.7679C130.858 36.0853 131.283 36.2439 131.787 36.2439C132.515 36.2439 133.033 35.9313 133.341 35.3059H135.455C135.231 36.0526 134.801 36.6686 134.167 37.1539C133.532 37.6299 132.753 37.8679 131.829 37.8679C131.082 37.8679 130.41 37.7046 129.813 37.3779C129.225 37.0419 128.763 36.5706 128.427 35.9639C128.1 35.3573 127.937 34.6573 127.937 33.8639C127.937 33.0613 128.1 32.3566 128.427 31.7499C128.753 31.1433 129.211 30.6766 129.799 30.3499C130.387 30.0233 131.063 29.8599 131.829 29.8599C132.566 29.8599 133.224 30.0186 133.803 30.3359C134.391 30.6533 134.843 31.1059 135.161 31.6939C135.487 32.2726 135.651 32.9399 135.651 33.6959ZM133.621 33.1359C133.611 32.6319 133.429 32.2306 133.075 31.9319C132.72 31.6239 132.286 31.4699 131.773 31.4699C131.287 31.4699 130.877 31.6193 130.541 31.9179C130.214 32.2073 130.013 32.6133 129.939 33.1359H133.621ZM147.833 29.9859L145.565 37.7419H143.451L142.037 32.3239L140.623 37.7419H138.495L136.213 29.9859H138.201L139.573 35.8939L141.057 29.9859H143.129L144.585 35.8799L145.957 29.9859H147.833Z" fill="black"/>
<path d="M275.24 32.05V32.98H273.39V39H272.25V32.98H270.39V32.05H275.24ZM278.785 39.09C278.265 39.09 277.795 38.9733 277.375 38.74C276.955 38.5 276.625 38.1667 276.385 37.74C276.145 37.3067 276.025 36.8067 276.025 36.24C276.025 35.68 276.148 35.1833 276.395 34.75C276.641 34.3167 276.978 33.9833 277.405 33.75C277.831 33.5167 278.308 33.4 278.835 33.4C279.361 33.4 279.838 33.5167 280.265 33.75C280.691 33.9833 281.028 34.3167 281.275 34.75C281.521 35.1833 281.645 35.68 281.645 36.24C281.645 36.8 281.518 37.2967 281.265 37.73C281.011 38.1633 280.665 38.5 280.225 38.74C279.791 38.9733 279.311 39.09 278.785 39.09ZM278.785 38.1C279.078 38.1 279.351 38.03 279.605 37.89C279.865 37.75 280.075 37.54 280.235 37.26C280.395 36.98 280.475 36.64 280.475 36.24C280.475 35.84 280.398 35.5033 280.245 35.23C280.091 34.95 279.888 34.74 279.635 34.6C279.381 34.46 279.108 34.39 278.815 34.39C278.521 34.39 278.248 34.46 277.995 34.6C277.748 34.74 277.551 34.95 277.405 35.23C277.258 35.5033 277.185 35.84 277.185 36.24C277.185 36.8333 277.335 37.2933 277.635 37.62C277.941 37.94 278.325 38.1 278.785 38.1ZM282.391 36.22C282.391 35.6667 282.505 35.1767 282.731 34.75C282.965 34.3233 283.278 33.9933 283.671 33.76C284.071 33.52 284.515 33.4 285.001 33.4C285.361 33.4 285.715 33.48 286.061 33.64C286.415 33.7933 286.695 34 286.901 34.26V31.6H288.051V39H286.901V38.17C286.715 38.4367 286.455 38.6567 286.121 38.83C285.795 39.0033 285.418 39.09 284.991 39.09C284.511 39.09 284.071 38.97 283.671 38.73C283.278 38.4833 282.965 38.1433 282.731 37.71C282.505 37.27 282.391 36.7733 282.391 36.22ZM286.901 36.24C286.901 35.86 286.821 35.53 286.661 35.25C286.508 34.97 286.305 34.7567 286.051 34.61C285.798 34.4633 285.525 34.39 285.231 34.39C284.938 34.39 284.665 34.4633 284.411 34.61C284.158 34.75 283.951 34.96 283.791 35.24C283.638 35.5133 283.561 35.84 283.561 36.22C283.561 36.6 283.638 36.9333 283.791 37.22C283.951 37.5067 284.158 37.7267 284.411 37.88C284.671 38.0267 284.945 38.1 285.231 38.1C285.525 38.1 285.798 38.0267 286.051 37.88C286.305 37.7333 286.508 37.52 286.661 37.24C286.821 36.9533 286.901 36.62 286.901 36.24ZM289.169 36.22C289.169 35.6667 289.282 35.1767 289.509 34.75C289.742 34.3233 290.055 33.9933 290.449 33.76C290.849 33.52 291.289 33.4 291.769 33.4C292.202 33.4 292.579 33.4867 292.899 33.66C293.225 33.8267 293.485 34.0367 293.679 34.29V33.49H294.829V39H293.679V38.18C293.485 38.44 293.222 38.6567 292.889 38.83C292.555 39.0033 292.175 39.09 291.749 39.09C291.275 39.09 290.842 38.97 290.449 38.73C290.055 38.4833 289.742 38.1433 289.509 37.71C289.282 37.27 289.169 36.7733 289.169 36.22ZM293.679 36.24C293.679 35.86 293.599 35.53 293.439 35.25C293.285 34.97 293.082 34.7567 292.829 34.61C292.575 34.4633 292.302 34.39 292.009 34.39C291.715 34.39 291.442 34.4633 291.189 34.61C290.935 34.75 290.729 34.96 290.569 35.24C290.415 35.5133 290.339 35.84 290.339 36.22C290.339 36.6 290.415 36.9333 290.569 37.22C290.729 37.5067 290.935 37.7267 291.189 37.88C291.449 38.0267 291.722 38.1 292.009 38.1C292.302 38.1 292.575 38.0267 292.829 37.88C293.082 37.7333 293.285 37.52 293.439 37.24C293.599 36.9533 293.679 36.62 293.679 36.24ZM301.286 33.49L297.906 41.59H296.726L297.846 38.91L295.676 33.49H296.946L298.496 37.69L300.106 33.49H301.286Z" fill="black" fill-opacity="0.7"/>
<g clip-path="url(#clip0_1_758)">
<path d="M310.999 35.4883L313.062 33.4258L313.651 34.0149L310.999 36.6666L308.348 34.0149L308.937 33.4258L310.999 35.4883Z" fill="#D26D60"/>
</g>
<rect x="258.25" y="24.25" width="65.5" height="21.5" rx="2.75" stroke="black" stroke-opacity="0.2" stroke-width="0.5"/>
<path opacity="0.8" d="M26.1222 195.503V194.673H28.0022V201.903H27.0822V195.503H26.1222ZM29.5653 198.213C29.5653 197.067 29.752 196.173 30.1253 195.533C30.4986 194.887 31.152 194.563 32.0853 194.563C33.012 194.563 33.662 194.887 34.0353 195.533C34.4086 196.173 34.5953 197.067 34.5953 198.213C34.5953 199.38 34.4086 200.287 34.0353 200.933C33.662 201.58 33.012 201.903 32.0853 201.903C31.152 201.903 30.4986 201.58 30.1253 200.933C29.752 200.287 29.5653 199.38 29.5653 198.213ZM33.6953 198.213C33.6953 197.633 33.6553 197.143 33.5753 196.743C33.502 196.337 33.3453 196.01 33.1053 195.763C32.872 195.517 32.532 195.393 32.0853 195.393C31.632 195.393 31.2853 195.517 31.0453 195.763C30.812 196.01 30.6553 196.337 30.5753 196.743C30.502 197.143 30.4653 197.633 30.4653 198.213C30.4653 198.813 30.502 199.317 30.5753 199.723C30.6553 200.13 30.812 200.457 31.0453 200.703C31.2853 200.95 31.632 201.073 32.0853 201.073C32.532 201.073 32.872 200.95 33.1053 200.703C33.3453 200.457 33.502 200.13 33.5753 199.723C33.6553 199.317 33.6953 198.813 33.6953 198.213ZM36.2846 201.963C36.1113 201.963 35.9646 201.903 35.8446 201.783C35.7246 201.663 35.6646 201.517 35.6646 201.343C35.6646 201.17 35.7246 201.023 35.8446 200.903C35.9646 200.783 36.1113 200.723 36.2846 200.723C36.4513 200.723 36.5913 200.783 36.7046 200.903C36.8246 201.023 36.8846 201.17 36.8846 201.343C36.8846 201.517 36.8246 201.663 36.7046 201.783C36.5913 201.903 36.4513 201.963 36.2846 201.963ZM36.2846 197.683C36.1113 197.683 35.9646 197.623 35.8446 197.503C35.7246 197.383 35.6646 197.237 35.6646 197.063C35.6646 196.89 35.7246 196.743 35.8446 196.623C35.9646 196.503 36.1113 196.443 36.2846 196.443C36.4513 196.443 36.5913 196.503 36.7046 196.623C36.8246 196.743 36.8846 196.89 36.8846 197.063C36.8846 197.237 36.8246 197.383 36.7046 197.503C36.5913 197.623 36.4513 197.683 36.2846 197.683ZM37.9735 198.213C37.9735 197.067 38.1602 196.173 38.5335 195.533C38.9068 194.887 39.5602 194.563 40.4935 194.563C41.4202 194.563 42.0702 194.887 42.4435 195.533C42.8168 196.173 43.0035 197.067 43.0035 198.213C43.0035 199.38 42.8168 200.287 42.4435 200.933C42.0702 201.58 41.4202 201.903 40.4935 201.903C39.5602 201.903 38.9068 201.58 38.5335 200.933C38.1602 200.287 37.9735 199.38 37.9735 198.213ZM42.1035 198.213C42.1035 197.633 42.0635 197.143 41.9835 196.743C41.9102 196.337 41.7535 196.01 41.5135 195.763C41.2802 195.517 40.9402 195.393 40.4935 195.393C40.0402 195.393 39.6935 195.517 39.4535 195.763C39.2202 196.01 39.0635 196.337 38.9835 196.743C38.9102 197.143 38.8735 197.633 38.8735 198.213C38.8735 198.813 38.9102 199.317 38.9835 199.723C39.0635 200.13 39.2202 200.457 39.4535 200.703C39.6935 200.95 40.0402 201.073 40.4935 201.073C40.9402 201.073 41.2802 200.95 41.5135 200.703C41.7535 200.457 41.9102 200.13 41.9835 199.723C42.0635 199.317 42.1035 198.813 42.1035 198.213ZM44.2528 198.213C44.2528 197.067 44.4395 196.173 44.8128 195.533C45.1861 194.887 45.8395 194.563 46.7728 194.563C47.6995 194.563 48.3495 194.887 48.7228 195.533C49.0961 196.173 49.2828 197.067 49.2828 198.213C49.2828 199.38 49.0961 200.287 48.7228 200.933C48.3495 201.58 47.6995 201.903 46.7728 201.903C45.8395 201.903 45.1861 201.58 44.8128 200.933C44.4395 200.287 44.2528 199.38 44.2528 198.213ZM48.3828 198.213C48.3828 197.633 48.3428 197.143 48.2628 196.743C48.1895 196.337 48.0328 196.01 47.7928 195.763C47.5595 195.517 47.2195 195.393 46.7728 195.393C46.3195 195.393 45.9728 195.517 45.7328 195.763C45.4995 196.01 45.3428 196.337 45.2628 196.743C45.1895 197.143 45.1528 197.633 45.1528 198.213C45.1528 198.813 45.1895 199.317 45.2628 199.723C45.3428 200.13 45.4995 200.457 45.7328 200.703C45.9728 200.95 46.3195 201.073 46.7728 201.073C47.2195 201.073 47.5595 200.95 47.7928 200.703C48.0328 200.457 48.1895 200.13 48.2628 199.723C48.3428 199.317 48.3828 198.813 48.3828 198.213Z" fill="black" fill-opacity="0.7"/>
<path opacity="0.8" d="M72.089 195.503V194.673H73.969V201.903H73.049V195.503H72.089ZM75.5321 198.213C75.5321 197.067 75.7188 196.173 76.0921 195.533C76.4654 194.887 77.1188 194.563 78.0521 194.563C78.9788 194.563 79.6288 194.887 80.0021 195.533C80.3754 196.173 80.5621 197.067 80.5621 198.213C80.5621 199.38 80.3754 200.287 80.0021 200.933C79.6288 201.58 78.9788 201.903 78.0521 201.903C77.1188 201.903 76.4654 201.58 76.0921 200.933C75.7188 200.287 75.5321 199.38 75.5321 198.213ZM79.6621 198.213C79.6621 197.633 79.6221 197.143 79.5421 196.743C79.4688 196.337 79.3121 196.01 79.0721 195.763C78.8388 195.517 78.4988 195.393 78.0521 195.393C77.5988 195.393 77.2521 195.517 77.0121 195.763C76.7788 196.01 76.6221 196.337 76.5421 196.743C76.4688 197.143 76.4321 197.633 76.4321 198.213C76.4321 198.813 76.4688 199.317 76.5421 199.723C76.6221 200.13 76.7788 200.457 77.0121 200.703C77.2521 200.95 77.5988 201.073 78.0521 201.073C78.4988 201.073 78.8388 200.95 79.0721 200.703C79.3121 200.457 79.4688 200.13 79.5421 199.723C79.6221 199.317 79.6621 198.813 79.6621 198.213ZM82.2514 201.963C82.0781 201.963 81.9314 201.903 81.8114 201.783C81.6914 201.663 81.6314 201.517 81.6314 201.343C81.6314 201.17 81.6914 201.023 81.8114 200.903C81.9314 200.783 82.0781 200.723 82.2514 200.723C82.4181 200.723 82.5581 200.783 82.6714 200.903C82.7914 201.023 82.8514 201.17 82.8514 201.343C82.8514 201.517 82.7914 201.663 82.6714 201.783C82.5581 201.903 82.4181 201.963 82.2514 201.963ZM82.2514 197.683C82.0781 197.683 81.9314 197.623 81.8114 197.503C81.6914 197.383 81.6314 197.237 81.6314 197.063C81.6314 196.89 81.6914 196.743 81.8114 196.623C81.9314 196.503 82.0781 196.443 82.2514 196.443C82.4181 196.443 82.5581 196.503 82.6714 196.623C82.7914 196.743 82.8514 196.89 82.8514 197.063C82.8514 197.237 82.7914 197.383 82.6714 197.503C82.5581 197.623 82.4181 197.683 82.2514 197.683ZM83.9403 198.213C83.9403 197.067 84.127 196.173 84.5003 195.533C84.8736 194.887 85.527 194.563 86.4603 194.563C87.387 194.563 88.037 194.887 88.4103 195.533C88.7836 196.173 88.9703 197.067 88.9703 198.213C88.9703 199.38 88.7836 200.287 88.4103 200.933C88.037 201.58 87.387 201.903 86.4603 201.903C85.527 201.903 84.8736 201.58 84.5003 200.933C84.127 200.287 83.9403 199.38 83.9403 198.213ZM88.0703 198.213C88.0703 197.633 88.0303 197.143 87.9503 196.743C87.877 196.337 87.7203 196.01 87.4803 195.763C87.247 195.517 86.907 195.393 86.4603 195.393C86.007 195.393 85.6603 195.517 85.4203 195.763C85.187 196.01 85.0303 196.337 84.9503 196.743C84.877 197.143 84.8403 197.633 84.8403 198.213C84.8403 198.813 84.877 199.317 84.9503 199.723C85.0303 200.13 85.187 200.457 85.4203 200.703C85.6603 200.95 86.007 201.073 86.4603 201.073C86.907 201.073 87.247 200.95 87.4803 200.703C87.7203 200.457 87.877 200.13 87.9503 199.723C88.0303 199.317 88.0703 198.813 88.0703 198.213ZM90.2196 198.213C90.2196 197.067 90.4063 196.173 90.7796 195.533C91.1529 194.887 91.8063 194.563 92.7396 194.563C93.6663 194.563 94.3163 194.887 94.6896 195.533C95.0629 196.173 95.2496 197.067 95.2496 198.213C95.2496 199.38 95.0629 200.287 94.6896 200.933C94.3163 201.58 93.6663 201.903 92.7396 201.903C91.8063 201.903 91.1529 201.58 90.7796 200.933C90.4063 200.287 90.2196 199.38 90.2196 198.213ZM94.3496 198.213C94.3496 197.633 94.3096 197.143 94.2296 196.743C94.1563 196.337 93.9996 196.01 93.7596 195.763C93.5263 195.517 93.1863 195.393 92.7396 195.393C92.2863 195.393 91.9396 195.517 91.6996 195.763C91.4663 196.01 91.3096 196.337 91.2296 196.743C91.1563 197.143 91.1196 197.633 91.1196 198.213C91.1196 198.813 91.1563 199.317 91.2296 199.723C91.3096 200.13 91.4663 200.457 91.6996 200.703C91.9396 200.95 92.2863 201.073 92.7396 201.073C93.1863 201.073 93.5263 200.95 93.7596 200.703C93.9996 200.457 94.1563 200.13 94.2296 199.723C94.3096 199.317 94.3496 198.813 94.3496 198.213Z" fill="black" fill-opacity="0.7"/>
<path opacity="0.8" d="M118.058 195.503V194.673H119.938V201.903H119.018V195.503H118.058ZM121.501 198.213C121.501 197.067 121.688 196.173 122.061 195.533C122.434 194.887 123.088 194.563 124.021 194.563C124.948 194.563 125.598 194.887 125.971 195.533C126.344 196.173 126.531 197.067 126.531 198.213C126.531 199.38 126.344 200.287 125.971 200.933C125.598 201.58 124.948 201.903 124.021 201.903C123.088 201.903 122.434 201.58 122.061 200.933C121.688 200.287 121.501 199.38 121.501 198.213ZM125.631 198.213C125.631 197.633 125.591 197.143 125.511 196.743C125.438 196.337 125.281 196.01 125.041 195.763C124.808 195.517 124.468 195.393 124.021 195.393C123.568 195.393 123.221 195.517 122.981 195.763C122.748 196.01 122.591 196.337 122.511 196.743C122.438 197.143 122.401 197.633 122.401 198.213C122.401 198.813 122.438 199.317 122.511 199.723C122.591 200.13 122.748 200.457 122.981 200.703C123.221 200.95 123.568 201.073 124.021 201.073C124.468 201.073 124.808 200.95 125.041 200.703C125.281 200.457 125.438 200.13 125.511 199.723C125.591 199.317 125.631 198.813 125.631 198.213ZM128.22 201.963C128.047 201.963 127.9 201.903 127.78 201.783C127.66 201.663 127.6 201.517 127.6 201.343C127.6 201.17 127.66 201.023 127.78 200.903C127.9 200.783 128.047 200.723 128.22 200.723C128.387 200.723 128.527 200.783 128.64 200.903C128.76 201.023 128.82 201.17 128.82 201.343C128.82 201.517 128.76 201.663 128.64 201.783C128.527 201.903 128.387 201.963 128.22 201.963ZM128.22 197.683C128.047 197.683 127.9 197.623 127.78 197.503C127.66 197.383 127.6 197.237 127.6 197.063C127.6 196.89 127.66 196.743 127.78 196.623C127.9 196.503 128.047 196.443 128.22 196.443C128.387 196.443 128.527 196.503 128.64 196.623C128.76 196.743 128.82 196.89 128.82 197.063C128.82 197.237 128.76 197.383 128.64 197.503C128.527 197.623 128.387 197.683 128.22 197.683ZM129.909 198.213C129.909 197.067 130.096 196.173 130.469 195.533C130.842 194.887 131.496 194.563 132.429 194.563C133.356 194.563 134.006 194.887 134.379 195.533C134.752 196.173 134.939 197.067 134.939 198.213C134.939 199.38 134.752 200.287 134.379 200.933C134.006 201.58 133.356 201.903 132.429 201.903C131.496 201.903 130.842 201.58 130.469 200.933C130.096 200.287 129.909 199.38 129.909 198.213ZM134.039 198.213C134.039 197.633 133.999 197.143 133.919 196.743C133.846 196.337 133.689 196.01 133.449 195.763C133.216 195.517 132.876 195.393 132.429 195.393C131.976 195.393 131.629 195.517 131.389 195.763C131.156 196.01 130.999 196.337 130.919 196.743C130.846 197.143 130.809 197.633 130.809 198.213C130.809 198.813 130.846 199.317 130.919 199.723C130.999 200.13 131.156 200.457 131.389 200.703C131.629 200.95 131.976 201.073 132.429 201.073C132.876 201.073 133.216 200.95 133.449 200.703C133.689 200.457 133.846 200.13 133.919 199.723C133.999 199.317 134.039 198.813 134.039 198.213ZM136.188 198.213C136.188 197.067 136.375 196.173 136.748 195.533C137.122 194.887 137.775 194.563 138.708 194.563C139.635 194.563 140.285 194.887 140.658 195.533C141.032 196.173 141.218 197.067 141.218 198.213C141.218 199.38 141.032 200.287 140.658 200.933C140.285 201.58 139.635 201.903 138.708 201.903C137.775 201.903 137.122 201.58 136.748 200.933C136.375 200.287 136.188 199.38 136.188 198.213ZM140.318 198.213C140.318 197.633 140.278 197.143 140.198 196.743C140.125 196.337 139.968 196.01 139.728 195.763C139.495 195.517 139.155 195.393 138.708 195.393C138.255 195.393 137.908 195.517 137.668 195.763C137.435 196.01 137.278 196.337 137.198 196.743C137.125 197.143 137.088 197.633 137.088 198.213C137.088 198.813 137.125 199.317 137.198 199.723C137.278 200.13 137.435 200.457 137.668 200.703C137.908 200.95 138.255 201.073 138.708 201.073C139.155 201.073 139.495 200.95 139.728 200.703C139.968 200.457 140.125 200.13 140.198 199.723C140.278 199.317 140.318 198.813 140.318 198.213Z" fill="black" fill-opacity="0.7"/>
<path opacity="0.8" d="M164.025 195.503V194.673H165.905V201.903H164.985V195.503H164.025ZM167.468 198.213C167.468 197.067 167.654 196.173 168.028 195.533C168.401 194.887 169.054 194.563 169.988 194.563C170.914 194.563 171.564 194.887 171.938 195.533C172.311 196.173 172.498 197.067 172.498 198.213C172.498 199.38 172.311 200.287 171.938 200.933C171.564 201.58 170.914 201.903 169.988 201.903C169.054 201.903 168.401 201.58 168.028 200.933C167.654 200.287 167.468 199.38 167.468 198.213ZM171.598 198.213C171.598 197.633 171.558 197.143 171.478 196.743C171.404 196.337 171.248 196.01 171.008 195.763C170.774 195.517 170.434 195.393 169.988 195.393C169.534 195.393 169.188 195.517 168.948 195.763C168.714 196.01 168.558 196.337 168.478 196.743C168.404 197.143 168.368 197.633 168.368 198.213C168.368 198.813 168.404 199.317 168.478 199.723C168.558 200.13 168.714 200.457 168.948 200.703C169.188 200.95 169.534 201.073 169.988 201.073C170.434 201.073 170.774 200.95 171.008 200.703C171.248 200.457 171.404 200.13 171.478 199.723C171.558 199.317 171.598 198.813 171.598 198.213ZM174.187 201.963C174.014 201.963 173.867 201.903 173.747 201.783C173.627 201.663 173.567 201.517 173.567 201.343C173.567 201.17 173.627 201.023 173.747 200.903C173.867 200.783 174.014 200.723 174.187 200.723C174.354 200.723 174.494 200.783 174.607 200.903C174.727 201.023 174.787 201.17 174.787 201.343C174.787 201.517 174.727 201.663 174.607 201.783C174.494 201.903 174.354 201.963 174.187 201.963ZM174.187 197.683C174.014 197.683 173.867 197.623 173.747 197.503C173.627 197.383 173.567 197.237 173.567 197.063C173.567 196.89 173.627 196.743 173.747 196.623C173.867 196.503 174.014 196.443 174.187 196.443C174.354 196.443 174.494 196.503 174.607 196.623C174.727 196.743 174.787 196.89 174.787 197.063C174.787 197.237 174.727 197.383 174.607 197.503C174.494 197.623 174.354 197.683 174.187 197.683ZM175.876 198.213C175.876 197.067 176.063 196.173 176.436 195.533C176.809 194.887 177.463 194.563 178.396 194.563C179.323 194.563 179.973 194.887 180.346 195.533C180.719 196.173 180.906 197.067 180.906 198.213C180.906 199.38 180.719 200.287 180.346 200.933C179.973 201.58 179.323 201.903 178.396 201.903C177.463 201.903 176.809 201.58 176.436 200.933C176.063 200.287 175.876 199.38 175.876 198.213ZM180.006 198.213C180.006 197.633 179.966 197.143 179.886 196.743C179.813 196.337 179.656 196.01 179.416 195.763C179.183 195.517 178.843 195.393 178.396 195.393C177.943 195.393 177.596 195.517 177.356 195.763C177.123 196.01 176.966 196.337 176.886 196.743C176.813 197.143 176.776 197.633 176.776 198.213C176.776 198.813 176.813 199.317 176.886 199.723C176.966 200.13 177.123 200.457 177.356 200.703C177.596 200.95 177.943 201.073 178.396 201.073C178.843 201.073 179.183 200.95 179.416 200.703C179.656 200.457 179.813 200.13 179.886 199.723C179.966 199.317 180.006 198.813 180.006 198.213ZM182.155 198.213C182.155 197.067 182.342 196.173 182.715 195.533C183.088 194.887 183.742 194.563 184.675 194.563C185.602 194.563 186.252 194.887 186.625 195.533C186.998 196.173 187.185 197.067 187.185 198.213C187.185 199.38 186.998 200.287 186.625 200.933C186.252 201.58 185.602 201.903 184.675 201.903C183.742 201.903 183.088 201.58 182.715 200.933C182.342 200.287 182.155 199.38 182.155 198.213ZM186.285 198.213C186.285 197.633 186.245 197.143 186.165 196.743C186.092 196.337 185.935 196.01 185.695 195.763C185.462 195.517 185.122 195.393 184.675 195.393C184.222 195.393 183.875 195.517 183.635 195.763C183.402 196.01 183.245 196.337 183.165 196.743C183.092 197.143 183.055 197.633 183.055 198.213C183.055 198.813 183.092 199.317 183.165 199.723C183.245 200.13 183.402 200.457 183.635 200.703C183.875 200.95 184.222 201.073 184.675 201.073C185.122 201.073 185.462 200.95 185.695 200.703C185.935 200.457 186.092 200.13 186.165 199.723C186.245 199.317 186.285 198.813 186.285 198.213Z" fill="black" fill-opacity="0.7"/>
<path opacity="0.8" d="M209.993 195.503V194.673H211.873V201.903H210.953V195.503H209.993ZM213.436 198.213C213.436 197.067 213.623 196.173 213.996 195.533C214.37 194.887 215.023 194.563 215.956 194.563C216.883 194.563 217.533 194.887 217.906 195.533C218.28 196.173 218.466 197.067 218.466 198.213C218.466 199.38 218.28 200.287 217.906 200.933C217.533 201.58 216.883 201.903 215.956 201.903C215.023 201.903 214.37 201.58 213.996 200.933C213.623 200.287 213.436 199.38 213.436 198.213ZM217.566 198.213C217.566 197.633 217.526 197.143 217.446 196.743C217.373 196.337 217.216 196.01 216.976 195.763C216.743 195.517 216.403 195.393 215.956 195.393C215.503 195.393 215.156 195.517 214.916 195.763C214.683 196.01 214.526 196.337 214.446 196.743C214.373 197.143 214.336 197.633 214.336 198.213C214.336 198.813 214.373 199.317 214.446 199.723C214.526 200.13 214.683 200.457 214.916 200.703C215.156 200.95 215.503 201.073 215.956 201.073C216.403 201.073 216.743 200.95 216.976 200.703C217.216 200.457 217.373 200.13 217.446 199.723C217.526 199.317 217.566 198.813 217.566 198.213ZM220.156 201.963C219.982 201.963 219.836 201.903 219.716 201.783C219.596 201.663 219.536 201.517 219.536 201.343C219.536 201.17 219.596 201.023 219.716 200.903C219.836 200.783 219.982 200.723 220.156 200.723C220.322 200.723 220.462 200.783 220.576 200.903C220.696 201.023 220.756 201.17 220.756 201.343C220.756 201.517 220.696 201.663 220.576 201.783C220.462 201.903 220.322 201.963 220.156 201.963ZM220.156 197.683C219.982 197.683 219.836 197.623 219.716 197.503C219.596 197.383 219.536 197.237 219.536 197.063C219.536 196.89 219.596 196.743 219.716 196.623C219.836 196.503 219.982 196.443 220.156 196.443C220.322 196.443 220.462 196.503 220.576 196.623C220.696 196.743 220.756 196.89 220.756 197.063C220.756 197.237 220.696 197.383 220.576 197.503C220.462 197.623 220.322 197.683 220.156 197.683ZM221.845 198.213C221.845 197.067 222.031 196.173 222.405 195.533C222.778 194.887 223.431 194.563 224.365 194.563C225.291 194.563 225.941 194.887 226.315 195.533C226.688 196.173 226.875 197.067 226.875 198.213C226.875 199.38 226.688 200.287 226.315 200.933C225.941 201.58 225.291 201.903 224.365 201.903C223.431 201.903 222.778 201.58 222.405 200.933C222.031 200.287 221.845 199.38 221.845 198.213ZM225.975 198.213C225.975 197.633 225.935 197.143 225.855 196.743C225.781 196.337 225.625 196.01 225.385 195.763C225.151 195.517 224.811 195.393 224.365 195.393C223.911 195.393 223.565 195.517 223.325 195.763C223.091 196.01 222.935 196.337 222.855 196.743C222.781 197.143 222.745 197.633 222.745 198.213C222.745 198.813 222.781 199.317 222.855 199.723C222.935 200.13 223.091 200.457 223.325 200.703C223.565 200.95 223.911 201.073 224.365 201.073C224.811 201.073 225.151 200.95 225.385 200.703C225.625 200.457 225.781 200.13 225.855 199.723C225.935 199.317 225.975 198.813 225.975 198.213ZM228.124 198.213C228.124 197.067 228.311 196.173 228.684 195.533C229.057 194.887 229.711 194.563 230.644 194.563C231.571 194.563 232.221 194.887 232.594 195.533C232.967 196.173 233.154 197.067 233.154 198.213C233.154 199.38 232.967 200.287 232.594 200.933C232.221 201.58 231.571 201.903 230.644 201.903C229.711 201.903 229.057 201.58 228.684 200.933C228.311 200.287 228.124 199.38 228.124 198.213ZM232.254 198.213C232.254 197.633 232.214 197.143 232.134 196.743C232.061 196.337 231.904 196.01 231.664 195.763C231.431 195.517 231.091 195.393 230.644 195.393C230.191 195.393 229.844 195.517 229.604 195.763C229.371 196.01 229.214 196.337 229.134 196.743C229.061 197.143 229.024 197.633 229.024 198.213C229.024 198.813 229.061 199.317 229.134 199.723C229.214 200.13 229.371 200.457 229.604 200.703C229.844 200.95 230.191 201.073 230.644 201.073C231.091 201.073 231.431 200.95 231.664 200.703C231.904 200.457 232.061 200.13 232.134 199.723C232.214 199.317 232.254 198.813 232.254 198.213Z" fill="black" fill-opacity="0.7"/>
<path opacity="0.8" d="M255.96 195.503V194.673H257.84V201.903H256.92V195.503H255.96ZM259.403 198.213C259.403 197.067 259.59 196.173 259.963 195.533C260.337 194.887 260.99 194.563 261.923 194.563C262.85 194.563 263.5 194.887 263.873 195.533C264.247 196.173 264.433 197.067 264.433 198.213C264.433 199.38 264.247 200.287 263.873 200.933C263.5 201.58 262.85 201.903 261.923 201.903C260.99 201.903 260.337 201.58 259.963 200.933C259.59 200.287 259.403 199.38 259.403 198.213ZM263.533 198.213C263.533 197.633 263.493 197.143 263.413 196.743C263.34 196.337 263.183 196.01 262.943 195.763C262.71 195.517 262.37 195.393 261.923 195.393C261.47 195.393 261.123 195.517 260.883 195.763C260.65 196.01 260.493 196.337 260.413 196.743C260.34 197.143 260.303 197.633 260.303 198.213C260.303 198.813 260.34 199.317 260.413 199.723C260.493 200.13 260.65 200.457 260.883 200.703C261.123 200.95 261.47 201.073 261.923 201.073C262.37 201.073 262.71 200.95 262.943 200.703C263.183 200.457 263.34 200.13 263.413 199.723C263.493 199.317 263.533 198.813 263.533 198.213ZM266.123 201.963C265.949 201.963 265.803 201.903 265.683 201.783C265.563 201.663 265.503 201.517 265.503 201.343C265.503 201.17 265.563 201.023 265.683 200.903C265.803 200.783 265.949 200.723 266.123 200.723C266.289 200.723 266.429 200.783 266.543 200.903C266.663 201.023 266.723 201.17 266.723 201.343C266.723 201.517 266.663 201.663 266.543 201.783C266.429 201.903 266.289 201.963 266.123 201.963ZM266.123 197.683C265.949 197.683 265.803 197.623 265.683 197.503C265.563 197.383 265.503 197.237 265.503 197.063C265.503 196.89 265.563 196.743 265.683 196.623C265.803 196.503 265.949 196.443 266.123 196.443C266.289 196.443 266.429 196.503 266.543 196.623C266.663 196.743 266.723 196.89 266.723 197.063C266.723 197.237 266.663 197.383 266.543 197.503C266.429 197.623 266.289 197.683 266.123 197.683ZM267.811 198.213C267.811 197.067 267.998 196.173 268.371 195.533C268.745 194.887 269.398 194.563 270.331 194.563C271.258 194.563 271.908 194.887 272.281 195.533C272.655 196.173 272.841 197.067 272.841 198.213C272.841 199.38 272.655 200.287 272.281 200.933C271.908 201.58 271.258 201.903 270.331 201.903C269.398 201.903 268.745 201.58 268.371 200.933C267.998 200.287 267.811 199.38 267.811 198.213ZM271.941 198.213C271.941 197.633 271.901 197.143 271.821 196.743C271.748 196.337 271.591 196.01 271.351 195.763C271.118 195.517 270.778 195.393 270.331 195.393C269.878 195.393 269.531 195.517 269.291 195.763C269.058 196.01 268.901 196.337 268.821 196.743C268.748 197.143 268.711 197.633 268.711 198.213C268.711 198.813 268.748 199.317 268.821 199.723C268.901 200.13 269.058 200.457 269.291 200.703C269.531 200.95 269.878 201.073 270.331 201.073C270.778 201.073 271.118 200.95 271.351 200.703C271.591 200.457 271.748 200.13 271.821 199.723C271.901 199.317 271.941 198.813 271.941 198.213ZM274.091 198.213C274.091 197.067 274.277 196.173 274.651 195.533C275.024 194.887 275.677 194.563 276.611 194.563C277.537 194.563 278.187 194.887 278.561 195.533C278.934 196.173 279.121 197.067 279.121 198.213C279.121 199.38 278.934 200.287 278.561 200.933C278.187 201.58 277.537 201.903 276.611 201.903C275.677 201.903 275.024 201.58 274.651 200.933C274.277 200.287 274.091 199.38 274.091 198.213ZM278.221 198.213C278.221 197.633 278.181 197.143 278.101 196.743C278.027 196.337 277.871 196.01 277.631 195.763C277.397 195.517 277.057 195.393 276.611 195.393C276.157 195.393 275.811 195.517 275.571 195.763C275.337 196.01 275.181 196.337 275.101 196.743C275.027 197.143 274.991 197.633 274.991 198.213C274.991 198.813 275.027 199.317 275.101 199.723C275.181 200.13 275.337 200.457 275.571 200.703C275.811 200.95 276.157 201.073 276.611 201.073C277.057 201.073 277.397 200.95 277.631 200.703C277.871 200.457 278.027 200.13 278.101 199.723C278.181 199.317 278.221 198.813 278.221 198.213Z" fill="black" fill-opacity="0.7"/>
<path opacity="0.8" d="M301.929 195.503V194.673H303.809V201.903H302.889V195.503H301.929ZM305.372 198.213C305.372 197.067 305.559 196.173 305.932 195.533C306.305 194.887 306.959 194.563 307.892 194.563C308.819 194.563 309.469 194.887 309.842 195.533C310.215 196.173 310.402 197.067 310.402 198.213C310.402 199.38 310.215 200.287 309.842 200.933C309.469 201.58 308.819 201.903 307.892 201.903C306.959 201.903 306.305 201.58 305.932 200.933C305.559 200.287 305.372 199.38 305.372 198.213ZM309.502 198.213C309.502 197.633 309.462 197.143 309.382 196.743C309.309 196.337 309.152 196.01 308.912 195.763C308.679 195.517 308.339 195.393 307.892 195.393C307.439 195.393 307.092 195.517 306.852 195.763C306.619 196.01 306.462 196.337 306.382 196.743C306.309 197.143 306.272 197.633 306.272 198.213C306.272 198.813 306.309 199.317 306.382 199.723C306.462 200.13 306.619 200.457 306.852 200.703C307.092 200.95 307.439 201.073 307.892 201.073C308.339 201.073 308.679 200.95 308.912 200.703C309.152 200.457 309.309 200.13 309.382 199.723C309.462 199.317 309.502 198.813 309.502 198.213ZM312.091 201.963C311.918 201.963 311.771 201.903 311.651 201.783C311.531 201.663 311.471 201.517 311.471 201.343C311.471 201.17 311.531 201.023 311.651 200.903C311.771 200.783 311.918 200.723 312.091 200.723C312.258 200.723 312.398 200.783 312.511 200.903C312.631 201.023 312.691 201.17 312.691 201.343C312.691 201.517 312.631 201.663 312.511 201.783C312.398 201.903 312.258 201.963 312.091 201.963ZM312.091 197.683C311.918 197.683 311.771 197.623 311.651 197.503C311.531 197.383 311.471 197.237 311.471 197.063C311.471 196.89 311.531 196.743 311.651 196.623C311.771 196.503 311.918 196.443 312.091 196.443C312.258 196.443 312.398 196.503 312.511 196.623C312.631 196.743 312.691 196.89 312.691 197.063C312.691 197.237 312.631 197.383 312.511 197.503C312.398 197.623 312.258 197.683 312.091 197.683ZM313.78 198.213C313.78 197.067 313.967 196.173 314.34 195.533C314.713 194.887 315.367 194.563 316.3 194.563C317.227 194.563 317.877 194.887 318.25 195.533C318.623 196.173 318.81 197.067 318.81 198.213C318.81 199.38 318.623 200.287 318.25 200.933C317.877 201.58 317.227 201.903 316.3 201.903C315.367 201.903 314.713 201.58 314.34 200.933C313.967 200.287 313.78 199.38 313.78 198.213ZM317.91 198.213C317.91 197.633 317.87 197.143 317.79 196.743C317.717 196.337 317.56 196.01 317.32 195.763C317.087 195.517 316.747 195.393 316.3 195.393C315.847 195.393 315.5 195.517 315.26 195.763C315.027 196.01 314.87 196.337 314.79 196.743C314.717 197.143 314.68 197.633 314.68 198.213C314.68 198.813 314.717 199.317 314.79 199.723C314.87 200.13 315.027 200.457 315.26 200.703C315.5 200.95 315.847 201.073 316.3 201.073C316.747 201.073 317.087 200.95 317.32 200.703C317.56 200.457 317.717 200.13 317.79 199.723C317.87 199.317 317.91 198.813 317.91 198.213ZM320.059 198.213C320.059 197.067 320.246 196.173 320.619 195.533C320.993 194.887 321.646 194.563 322.579 194.563C323.506 194.563 324.156 194.887 324.529 195.533C324.903 196.173 325.089 197.067 325.089 198.213C325.089 199.38 324.903 200.287 324.529 200.933C324.156 201.58 323.506 201.903 322.579 201.903C321.646 201.903 320.993 201.58 320.619 200.933C320.246 200.287 320.059 199.38 320.059 198.213ZM324.189 198.213C324.189 197.633 324.149 197.143 324.069 196.743C323.996 196.337 323.839 196.01 323.599 195.763C323.366 195.517 323.026 195.393 322.579 195.393C322.126 195.393 321.779 195.517 321.539 195.763C321.306 196.01 321.149 196.337 321.069 196.743C320.996 197.143 320.959 197.633 320.959 198.213C320.959 198.813 320.996 199.317 321.069 199.723C321.149 200.13 321.306 200.457 321.539 200.703C321.779 200.95 322.126 201.073 322.579 201.073C323.026 201.073 323.366 200.95 323.599 200.703C323.839 200.457 323.996 200.13 324.069 199.723C324.149 199.317 324.189 198.813 324.189 198.213Z" fill="black" fill-opacity="0.7"/>
<defs>
<clipPath id="clip0_1_758">
<rect width="10" height="10" fill="white" transform="translate(306 30)"/>
</clipPath>
</defs>
</svg>
