<svg width="100" height="26" viewBox="0 0 100 26" fill="none" xmlns="http://www.w3.org/2000/svg">
<path d="M14.7974 11.8636C14.8081 11.029 15.0298 10.2106 15.4419 9.48462C15.8539 8.75867 16.4428 8.14873 17.1539 7.71155C16.7022 7.06639 16.1062 6.53545 15.4134 6.1609C14.7206 5.78635 13.95 5.5785 13.1628 5.55387C11.4835 5.37761 9.85558 6.5587 8.99987 6.5587C8.1276 6.5587 6.8101 5.57137 5.39137 5.60056C4.4737 5.63021 3.57935 5.89706 2.79548 6.37512C2.0116 6.85318 1.36492 7.52614 0.918454 8.32843C-1.01555 11.6769 0.427043 16.5979 2.27965 19.3045C3.20655 20.6299 4.28983 22.1103 5.70728 22.0578C7.09434 22.0003 7.61238 21.1733 9.28668 21.1733C10.9454 21.1733 11.4315 22.0578 12.8777 22.0244C14.3661 22.0003 15.3038 20.6932 16.1982 19.3553C16.8642 18.4109 17.3766 17.3672 17.7166 16.2628C16.8519 15.8971 16.114 15.2849 15.5949 14.5026C15.0757 13.7203 14.7984 12.8025 14.7974 11.8636Z" fill="white"/>
<path d="M12.065 3.77382C12.8765 2.79961 13.2763 1.54744 13.1795 0.283203C11.9397 0.413424 10.7944 1.00598 9.97192 1.94281C9.56978 2.40048 9.26178 2.93291 9.06553 3.50968C8.86929 4.08645 8.78864 4.69625 8.82821 5.3042C9.44835 5.31059 10.0619 5.17618 10.6225 4.91109C11.1832 4.646 11.6764 4.25715 12.065 3.77382Z" fill="white"/>
<path d="M32.3301 18.7027H27.5967L26.46 22.0591H24.4551L28.9385 9.64114H31.0215L35.5049 22.0591H33.4658L32.3301 18.7027ZM28.0869 17.1539H31.8389L29.9893 11.7066H29.9376L28.0869 17.1539Z" fill="white"/>
<path d="M45.1866 17.5327C45.1866 20.3462 43.6807 22.1538 41.4083 22.1538C40.8326 22.1839 40.2601 22.0513 39.7563 21.7711C39.2525 21.491 38.8378 21.0747 38.5596 20.5698H38.5166V25.0542H36.6582V13.0053H38.4571V14.5112H38.4913C38.7822 14.0087 39.204 13.5945 39.7116 13.3127C40.2192 13.0308 40.7938 12.8919 41.3741 12.9106C43.6719 12.9106 45.1866 14.727 45.1866 17.5327ZM43.2764 17.5327C43.2764 15.6997 42.3292 14.4946 40.8838 14.4946C39.4639 14.4946 38.5088 15.7251 38.5088 17.5327C38.5088 19.3569 39.4639 20.5786 40.8838 20.5786C42.3292 20.5786 43.2764 19.3823 43.2764 17.5327Z" fill="white"/>
<path d="M55.1514 17.5327C55.1514 20.3462 53.6456 22.1538 51.3731 22.1538C50.7975 22.1839 50.225 22.0513 49.7212 21.7711C49.2174 21.491 48.8026 21.0747 48.5245 20.5698H48.4815V25.0541H46.6231V13.0053H48.4219V14.5112H48.4561C48.747 14.0087 49.1688 13.5945 49.6764 13.3127C50.184 13.0308 50.7586 12.8919 51.3389 12.9106C53.6368 12.9106 55.1514 14.727 55.1514 17.5327ZM53.2413 17.5327C53.2413 15.6997 52.294 14.4946 50.8487 14.4946C49.4288 14.4946 48.4737 15.7251 48.4737 17.5327C48.4737 19.3569 49.4288 20.5786 50.8487 20.5786C52.294 20.5786 53.2413 19.3823 53.2413 17.5327Z" fill="white"/>
<path d="M61.7383 18.5992C61.876 19.8306 63.0723 20.6392 64.7071 20.6392C66.2735 20.6392 67.4004 19.8306 67.4004 18.7202C67.4004 17.7564 66.7207 17.1792 65.1114 16.7837L63.502 16.396C61.2217 15.8452 60.1631 14.7788 60.1631 13.0483C60.1631 10.9058 62.0303 9.43408 64.6817 9.43408C67.3057 9.43408 69.1045 10.9058 69.1651 13.0483H67.2891C67.1768 11.8091 66.1524 11.061 64.6553 11.061C63.1582 11.061 62.1338 11.8179 62.1338 12.9194C62.1338 13.7974 62.7881 14.314 64.3887 14.7094L65.7568 15.0454C68.3047 15.6479 69.3633 16.6714 69.3633 18.4878C69.3633 20.811 67.5127 22.2661 64.5693 22.2661C61.8154 22.2661 59.9561 20.8452 59.8359 18.5991L61.7383 18.5992Z" fill="white"/>
<path d="M73.375 10.8628V13.0054H75.0967V14.4771H73.375V19.4683C73.375 20.2437 73.7198 20.605 74.4766 20.605C74.681 20.6014 74.885 20.5871 75.0879 20.562V22.0249C74.7476 22.0885 74.4018 22.1172 74.0557 22.1108C72.2227 22.1108 71.5078 21.4223 71.5078 19.6665V14.4771H70.1914V13.0054H71.5078V10.8628H73.375Z" fill="white"/>
<path d="M76.0938 17.5327C76.0938 14.6841 77.7715 12.894 80.3877 12.894C83.0127 12.894 84.6826 14.684 84.6826 17.5327C84.6826 20.3892 83.0215 22.1714 80.3877 22.1714C77.7549 22.1714 76.0938 20.3892 76.0938 17.5327ZM82.7891 17.5327C82.7891 15.5786 81.8936 14.4253 80.3877 14.4253C78.8819 14.4253 77.9873 15.5874 77.9873 17.5327C77.9873 19.4946 78.8819 20.6392 80.3877 20.6392C81.8936 20.6392 82.7891 19.4946 82.7891 17.5327Z" fill="white"/>
<path d="M86.2129 13.0055H87.9854V14.5465H88.0284C88.1483 14.0652 88.4303 13.6399 88.8269 13.342C89.2234 13.0441 89.7105 12.8918 90.2061 12.9108C90.4203 12.91 90.6339 12.9333 90.8428 12.9801V14.7184C90.5725 14.6358 90.2904 14.5978 90.0078 14.6061C89.7379 14.5951 89.4687 14.6427 89.2189 14.7456C88.969 14.8485 88.7444 15.0042 88.5604 15.2021C88.3765 15.4 88.2375 15.6354 88.1531 15.892C88.0686 16.1487 88.0407 16.4206 88.0713 16.6891V22.0592H86.2129L86.2129 13.0055Z" fill="white"/>
<path d="M99.4131 19.3999C99.1631 21.0435 97.5625 22.1714 95.5147 22.1714C92.8809 22.1714 91.2461 20.4067 91.2461 17.5757C91.2461 14.7358 92.8897 12.894 95.4366 12.894C97.9414 12.894 99.5166 14.6147 99.5166 17.3599V17.9966H93.1221V18.1089C93.0926 18.4421 93.1343 18.7778 93.2445 19.0936C93.3547 19.4094 93.5308 19.6982 93.7611 19.9408C93.9915 20.1833 94.2708 20.3741 94.5806 20.5004C94.8903 20.6267 95.2234 20.6856 95.5577 20.6733C95.9968 20.7145 96.4375 20.6128 96.8142 20.3833C97.191 20.1539 97.4835 19.809 97.6485 19.3999L99.4131 19.3999ZM93.1309 16.6978H97.6573C97.6739 16.3982 97.6285 16.0983 97.5238 15.8171C97.4192 15.5359 97.2575 15.2794 97.049 15.0636C96.8404 14.8479 96.5896 14.6775 96.3121 14.5633C96.0346 14.4491 95.7365 14.3935 95.4366 14.3999C95.1339 14.3981 94.8339 14.4562 94.5539 14.571C94.2738 14.6857 94.0193 14.8548 93.8049 15.0684C93.5906 15.2821 93.4207 15.536 93.305 15.8157C93.1893 16.0953 93.1301 16.3951 93.1309 16.6978Z" fill="white"/>
<path d="M27.8545 0.29388C28.2441 0.265921 28.6351 0.324781 28.9992 0.466214C29.3633 0.607647 29.6915 0.828127 29.9601 1.11175C30.2287 1.39538 30.431 1.73508 30.5524 2.10635C30.6738 2.47762 30.7113 2.87121 30.6621 3.25872C30.6621 5.16497 29.6319 6.26072 27.8545 6.26072H25.6992V0.29388H27.8545ZM26.626 5.41688H27.751C28.0294 5.43352 28.308 5.38787 28.5666 5.28326C28.8251 5.17865 29.0571 5.0177 29.2455 4.81213C29.434 4.60657 29.5743 4.36156 29.6562 4.09494C29.738 3.82832 29.7594 3.5468 29.7188 3.27088C29.7565 2.99605 29.7329 2.71627 29.6498 2.45161C29.5667 2.18695 29.4261 1.94394 29.238 1.74001C29.0499 1.53608 28.8191 1.37628 28.562 1.27204C28.3049 1.1678 28.028 1.12172 27.751 1.13709H26.626V5.41688Z" fill="white"/>
<path d="M31.7093 4.00728C31.681 3.71136 31.7148 3.41279 31.8087 3.13072C31.9025 2.84865 32.0543 2.58931 32.2542 2.36933C32.4542 2.14935 32.6979 1.97358 32.9697 1.8533C33.2416 1.73303 33.5356 1.6709 33.8328 1.6709C34.1301 1.6709 34.4241 1.73303 34.6959 1.8533C34.9678 1.97358 35.2115 2.14935 35.4114 2.36933C35.6114 2.58931 35.7631 2.84865 35.857 3.13072C35.9508 3.41279 35.9847 3.71136 35.9564 4.00728C35.9852 4.3035 35.9518 4.60248 35.8582 4.885C35.7646 5.16753 35.6129 5.42735 35.4129 5.64776C35.2129 5.86818 34.969 6.04431 34.6969 6.16485C34.4248 6.28538 34.1305 6.34765 33.8328 6.34765C33.5352 6.34765 33.2409 6.28538 32.9688 6.16485C32.6966 6.04431 32.4527 5.86818 32.2527 5.64776C32.0527 5.42735 31.9011 5.16753 31.8075 4.885C31.7139 4.60248 31.6804 4.3035 31.7093 4.00728ZM35.0423 4.00728C35.0423 3.03121 34.6038 2.46041 33.8343 2.46041C33.0618 2.46041 32.6273 3.03121 32.6273 4.00729C32.6273 4.99118 33.0619 5.55758 33.8343 5.55758C34.6038 5.55757 35.0423 4.98726 35.0423 4.00728Z" fill="white"/>
<path d="M41.6016 6.26075H40.6797L39.7491 2.94434H39.6787L38.752 6.26075H37.8389L36.5977 1.75782H37.4991L38.3057 5.19382H38.3721L39.2979 1.75782H40.1504L41.0762 5.19382H41.1465L41.9492 1.75782H42.8379L41.6016 6.26075Z" fill="white"/>
<path d="M43.8809 1.75786H44.7364V2.47319H44.8028C44.9154 2.21627 45.1054 2.00089 45.3463 1.85709C45.5872 1.71328 45.8669 1.64821 46.1465 1.67094C46.3656 1.65446 46.5856 1.6875 46.7902 1.7676C46.9948 1.84769 47.1788 1.9728 47.3284 2.13364C47.4781 2.29448 47.5897 2.48694 47.6549 2.69676C47.7201 2.90658 47.7373 3.12839 47.7051 3.34574V6.26074H46.8164V3.5689C46.8164 2.84527 46.502 2.4854 45.8448 2.4854C45.696 2.47847 45.5475 2.50379 45.4094 2.55962C45.2714 2.61545 45.147 2.70047 45.0449 2.80885C44.9428 2.91724 44.8653 3.04642 44.8178 3.18755C44.7703 3.32869 44.7538 3.47842 44.7696 3.62651V6.26079H43.8809L43.8809 1.75786Z" fill="white"/>
<path d="M49.1211 0H50.0098V6.26074H49.1211V0Z" fill="white"/>
<path d="M51.2464 4.00736C51.2181 3.71142 51.252 3.41284 51.3458 3.13076C51.4397 2.84868 51.5915 2.58933 51.7914 2.36934C51.9914 2.14935 52.2351 1.97358 52.507 1.85331C52.7789 1.73303 53.0729 1.6709 53.3702 1.6709C53.6674 1.6709 53.9615 1.73303 54.2333 1.85331C54.5052 1.97358 54.7489 2.14935 54.9489 2.36934C55.1488 2.58933 55.3006 2.84868 55.3945 3.13076C55.4884 3.41284 55.5222 3.71142 55.4939 4.00736C55.5227 4.30359 55.4893 4.60258 55.3956 4.8851C55.302 5.16763 55.1503 5.42744 54.9503 5.64785C54.7503 5.86826 54.5064 6.04438 54.2343 6.16491C53.9621 6.28544 53.6678 6.34771 53.3702 6.34771C53.0725 6.34771 52.7782 6.28544 52.5061 6.16491C52.2339 6.04438 51.99 5.86826 51.79 5.64785C51.59 5.42744 51.4383 5.16763 51.3447 4.8851C51.2511 4.60258 51.2176 4.30359 51.2464 4.00736ZM54.5794 4.00736C54.5794 3.03129 54.1409 2.46049 53.3714 2.46049C52.5989 2.46049 52.1644 3.03129 52.1644 4.00737C52.1644 4.99126 52.5989 5.55766 53.3714 5.55766C54.1409 5.55765 54.5794 4.98734 54.5794 4.00736Z" fill="white"/>
<path d="M56.4297 4.9873C56.4297 4.17675 57.0332 3.70947 58.1045 3.64306L59.3242 3.57275V3.18408C59.3242 2.70849 59.0098 2.43994 58.4024 2.43994C57.9063 2.43994 57.5625 2.62207 57.4639 2.94043H56.6035C56.6944 2.16699 57.4219 1.6709 58.4434 1.6709C59.5723 1.6709 60.209 2.2329 60.209 3.18408V6.26074H59.3535V5.62793H59.2832C59.1405 5.85492 58.9401 6.03997 58.7025 6.16418C58.4649 6.28839 58.1985 6.34731 57.9307 6.33493C57.7417 6.35459 57.5506 6.33442 57.3698 6.27573C57.1891 6.21703 57.0226 6.1211 56.8812 5.99413C56.7398 5.86716 56.6266 5.71197 56.5488 5.53855C56.471 5.36514 56.4305 5.17735 56.4297 4.9873ZM59.3242 4.60253V4.22607L58.2246 4.29638C57.6045 4.33788 57.3233 4.54882 57.3233 4.94579C57.3233 5.35106 57.6748 5.5869 58.1583 5.5869C58.2999 5.60124 58.443 5.58694 58.579 5.54484C58.715 5.50275 58.8412 5.43374 58.9499 5.34189C59.0587 5.25005 59.1479 5.13727 59.2122 5.01025C59.2765 4.88323 59.3146 4.74457 59.3242 4.60253Z" fill="white"/>
<path d="M61.377 4.00734C61.377 2.58449 62.1084 1.68312 63.2461 1.68312C63.5275 1.67015 63.8068 1.73756 64.0514 1.87745C64.2959 2.01735 64.4955 2.22395 64.627 2.47312H64.6934V0H65.5821V6.26074H64.7305V5.54931H64.6602C64.5186 5.7968 64.312 6.00083 64.0627 6.13932C63.8135 6.2778 63.5311 6.34545 63.2461 6.33495C62.1006 6.335 61.377 5.43361 61.377 4.00734ZM62.295 4.00734C62.295 4.96242 62.7452 5.53713 63.4981 5.53713C64.2471 5.53713 64.71 4.95413 64.71 4.01125C64.71 3.07277 64.2423 2.48146 63.4981 2.48146C62.75 2.48146 62.295 3.06007 62.295 4.00734Z" fill="white"/>
<path d="M69.2581 4.00728C69.2298 3.71136 69.2637 3.41279 69.3575 3.13072C69.4513 2.84865 69.6031 2.58931 69.803 2.36933C70.003 2.14935 70.2467 1.97358 70.5185 1.8533C70.7904 1.73303 71.0844 1.6709 71.3817 1.6709C71.6789 1.6709 71.9729 1.73303 72.2448 1.8533C72.5166 1.97358 72.7603 2.14935 72.9603 2.36933C73.1602 2.58931 73.312 2.84865 73.4058 3.13072C73.4996 3.41279 73.5335 3.71136 73.5052 4.00728C73.534 4.3035 73.5006 4.60248 73.407 4.885C73.3134 5.16753 73.1617 5.42735 72.9617 5.64776C72.7618 5.86818 72.5179 6.04431 72.2457 6.16485C71.9736 6.28538 71.6793 6.34765 71.3817 6.34765C71.084 6.34765 70.7897 6.28538 70.5176 6.16485C70.2455 6.04431 70.0016 5.86818 69.8016 5.64776C69.6016 5.42735 69.4499 5.16753 69.3563 4.885C69.2627 4.60248 69.2293 4.3035 69.2581 4.00728ZM72.5911 4.00728C72.5911 3.03121 72.1526 2.46041 71.3831 2.46041C70.6107 2.46041 70.1761 3.03121 70.1761 4.00729C70.1761 4.99118 70.6107 5.55758 71.3831 5.55758C72.1527 5.55757 72.5911 4.98726 72.5911 4.00728Z" fill="white"/>
<path d="M74.6973 1.75786H75.5528V2.47319H75.6192C75.7318 2.21627 75.9218 2.00089 76.1627 1.85709C76.4036 1.71328 76.6833 1.64821 76.9629 1.67094C77.182 1.65446 77.402 1.6875 77.6066 1.7676C77.8112 1.84769 77.9952 1.9728 78.1449 2.13364C78.2945 2.29448 78.4061 2.48694 78.4713 2.69676C78.5365 2.90658 78.5537 3.12839 78.5215 3.34574V6.26074H77.6329V3.5689C77.6329 2.84527 77.3184 2.4854 76.6612 2.4854C76.5124 2.47847 76.3639 2.50379 76.2259 2.55962C76.0878 2.61545 75.9634 2.70047 75.8613 2.80885C75.7592 2.91724 75.6817 3.04642 75.6342 3.18755C75.5867 3.32869 75.5702 3.47842 75.586 3.62651V6.26079H74.6973V1.75786Z" fill="white"/>
<path d="M83.544 0.636719V1.77832H84.5196V2.52686H83.544V4.84229C83.544 5.31397 83.7383 5.52051 84.1807 5.52051C84.294 5.52015 84.4071 5.5133 84.5196 5.5V6.24023C84.36 6.26878 84.1983 6.28397 84.0362 6.28564C83.0479 6.28564 82.6543 5.93798 82.6543 5.06982V2.52682H81.9395V1.77828H82.6543V0.636719H83.544Z" fill="white"/>
<path d="M85.7325 0H86.6133V2.48145H86.6836C86.8018 2.22213 86.997 2.00554 87.2427 1.86119C87.4884 1.71684 87.7726 1.65176 88.0566 1.67481C88.2746 1.66295 88.4925 1.69934 88.6947 1.78138C88.897 1.86342 89.0787 1.9891 89.2268 2.14943C89.3749 2.30977 89.4859 2.50082 89.5516 2.70896C89.6174 2.91709 89.6365 3.13718 89.6074 3.35352V6.26075H88.7178V3.57275C88.7178 2.85351 88.3828 2.48925 87.755 2.48925C87.6022 2.47672 87.4486 2.49772 87.3048 2.55077C87.161 2.60383 87.0306 2.68766 86.9226 2.79639C86.8146 2.90513 86.7317 3.03615 86.6796 3.18029C86.6275 3.32443 86.6076 3.4782 86.6212 3.63085V6.26073H85.7325L85.7325 0Z" fill="white"/>
<path d="M94.7888 5.04499C94.668 5.45653 94.4064 5.81252 94.0497 6.05067C93.693 6.28882 93.264 6.39397 92.8376 6.34772C92.5409 6.35556 92.2461 6.29873 91.9736 6.18121C91.7011 6.06368 91.4574 5.88826 91.2595 5.66712C91.0616 5.44598 90.9142 5.18442 90.8275 4.9006C90.7408 4.61678 90.7169 4.31749 90.7575 4.02351C90.718 3.72863 90.7423 3.4287 90.8288 3.14402C90.9153 2.85935 91.0619 2.59658 91.2588 2.37351C91.4557 2.15044 91.6982 1.97227 91.9699 1.85106C92.2416 1.72985 92.5362 1.66844 92.8337 1.67097C94.0866 1.67097 94.8425 2.52697 94.8425 3.94097V4.25106H91.6628V4.30086C91.6489 4.46611 91.6696 4.63244 91.7238 4.78919C91.7779 4.94594 91.8642 5.08965 91.9771 5.2111C92.09 5.33256 92.227 5.42908 92.3794 5.49448C92.5318 5.55988 92.6962 5.5927 92.862 5.59086C93.0746 5.61638 93.2899 5.57811 93.4807 5.4809C93.6715 5.38369 93.829 5.23195 93.9333 5.04496L94.7888 5.04499ZM91.6628 3.59382H93.9372C93.9484 3.4427 93.9278 3.2909 93.8769 3.14818C93.8259 3.00546 93.7457 2.87498 93.6413 2.76512C93.5369 2.65526 93.4107 2.56846 93.2708 2.51028C93.1308 2.45211 92.9803 2.42385 92.8288 2.42732C92.6751 2.42539 92.5225 2.45425 92.3802 2.51219C92.2378 2.57014 92.1085 2.656 91.9998 2.76471C91.8911 2.87343 91.8053 3.00279 91.7475 3.14519C91.6896 3.28758 91.6608 3.44013 91.6628 3.59382Z" fill="white"/>
</svg>
