<svg width="446" height="348" viewBox="0 0 446 348" fill="none" xmlns="http://www.w3.org/2000/svg">
<path d="M245.779 302.416H200.222L197.701 317.031C194.995 332.723 207.078 347.069 223 347.069C238.924 347.069 251.006 332.723 248.299 317.031L245.779 302.416Z" fill="#FFDD27"/>
<path d="M248.653 320.365C248.607 319.264 248.489 318.152 248.296 317.033L245.775 302.418L210.042 294.177L200.217 302.418L197.696 317.033C197.503 318.152 197.385 319.265 197.339 320.365H248.653Z" fill="#F9C91A"/>
<path d="M334.504 231.099C331.577 226.029 330.036 220.279 330.036 214.425V155.968C330.036 108.533 299.178 68.3029 256.441 54.2591C255.142 53.8323 254.593 52.4743 255.169 51.233C257.681 45.8191 258.865 39.6683 258.3 33.2022C257.063 19.0321 244.948 0.931641 223.047 0.931641C203.364 0.931641 187.564 16.9075 187.564 36.3695C187.564 41.5804 188.695 46.5325 190.724 50.9934C191.349 52.3662 190.67 53.8907 189.239 54.3663C146.67 68.505 115.967 108.65 115.967 155.967L115.968 214.425C115.968 220.279 114.427 226.03 111.5 231.1L225.377 253.911L334.504 231.099ZM210.44 36.3686C210.44 29.4303 216.064 23.8066 223.002 23.8066C229.94 23.8066 235.564 29.4312 235.564 36.3686C235.564 43.306 229.939 48.9306 223.002 48.9306C216.063 48.9315 210.44 43.3069 210.44 36.3686Z" fill="#FFDD27"/>
<path d="M294.136 133.532V191.989C294.136 197.842 295.677 203.593 298.604 208.663L311.556 231.098L328.836 238.044L334.499 231.098C331.572 226.028 330.031 220.278 330.031 214.424V155.967C330.031 110.088 301.164 70.9484 260.602 55.7243C281.251 75.2368 294.136 102.88 294.136 133.532Z" fill="#F9C91A"/>
<path d="M445.998 165.384C445.998 200.851 433.184 233.319 411.938 258.415C407.731 263.386 400.137 263.626 395.533 259.021L395.472 258.96C391.324 254.813 391.127 248.209 394.909 243.728C412.779 222.553 423.563 195.209 423.563 165.384C423.563 135.566 412.777 108.215 394.913 87.0387C391.132 82.5578 391.331 75.9567 395.474 71.8103L395.54 71.745C400.144 67.1377 407.74 67.3773 411.949 72.3504C433.192 97.4544 445.998 129.926 445.998 165.384Z" fill="#FFDD27"/>
<path d="M401.132 165.386C401.132 188.185 393.401 209.22 380.417 225.996C376.276 231.347 368.392 231.878 363.608 227.094L363.594 227.08C359.594 223.081 359.23 216.749 362.689 212.274C372.72 199.294 378.697 183.028 378.697 165.386C378.697 147.745 372.72 131.479 362.689 118.499C359.23 114.024 359.594 107.691 363.594 103.692L363.608 103.678C368.392 98.8941 376.276 99.4246 380.417 104.776C393.401 121.551 401.132 142.586 401.132 165.386Z" fill="#FFDD27"/>
<path d="M0 165.384C0 200.851 12.8138 233.319 34.0598 258.415C38.2671 263.386 45.8605 263.626 50.4651 259.021L50.5261 258.96C54.6733 254.813 54.8711 248.209 51.0888 243.728C33.2192 222.553 22.435 195.209 22.435 165.384C22.435 135.566 33.2209 108.215 51.0853 87.0387C54.8658 82.5578 54.6672 75.9567 50.5234 71.8103L50.4581 71.745C45.8535 67.1377 38.2576 67.3773 34.0493 72.3504C12.806 97.4544 0 129.926 0 165.384Z" fill="#FFDD27"/>
<path d="M44.8613 165.386C44.8613 188.185 52.5931 209.22 65.5768 225.996C69.718 231.347 77.6022 231.878 82.3863 227.094L82.4002 227.08C86.3994 223.081 86.7635 216.749 83.3053 212.274C73.2738 199.294 67.2963 183.028 67.2963 165.386C67.2963 147.745 73.2738 131.479 83.3053 118.499C86.7635 114.024 86.3994 107.691 82.4002 103.692L82.3863 103.678C77.6022 98.8941 69.718 99.4246 65.5768 104.776C52.5931 121.551 44.8613 142.586 44.8613 165.386Z" fill="#FFDD27"/>
<path d="M223 78.5365C216.494 78.5365 210.252 77.0923 204.447 74.2447C201.11 72.6079 199.732 68.5747 201.368 65.2375C203.005 61.8995 207.037 60.5223 210.375 62.1591C214.32 64.0938 218.567 65.0755 223 65.0755C227.394 65.0755 231.608 64.1112 235.523 62.2096C238.865 60.5859 242.894 61.9788 244.517 65.3229C246.142 68.6662 244.748 72.6932 241.404 74.3169C235.641 77.1175 229.449 78.5365 223 78.5365Z" fill="#F9C91A"/>
<path d="M334.496 231.1H111.492L73.6152 296.705C72.1492 299.243 73.982 302.416 76.9132 302.416H369.075C372.007 302.416 373.839 299.243 372.373 296.705L334.496 231.1Z" fill="#F6E266"/>
<path d="M372.373 296.703L334.496 231.098H311.554L316.783 240.155C327.002 257.854 314.228 279.979 293.789 279.979H83.2704L73.6152 296.702C72.1492 299.241 73.982 302.414 76.9132 302.414H369.075C372.008 302.415 373.839 299.243 372.373 296.703Z" fill="#F4D820"/>
</svg>
