<svg width="552" height="478" viewBox="0 0 552 478" fill="none" xmlns="http://www.w3.org/2000/svg">
<path d="M518.503 84.1632L220.352 67.2841L0 84.1632V416.705C0 422.501 4.69844 427.199 10.4933 427.199H508.01C513.805 427.199 518.502 422.501 518.502 416.708V84.1632H518.503Z" fill="#F6F9F9"/>
<path d="M10.4933 427.201H508.011C513.806 427.201 518.503 422.503 518.503 416.709V84.165L474.078 81.8977V255.815C474.078 276.16 456.08 291.811 435.937 288.956C431.694 288.354 427.347 288.072 422.922 288.134C377.995 288.766 341.277 325.521 340.691 370.45C340.686 370.764 340.684 371.079 340.683 371.394C340.645 389.929 325.752 404.989 307.217 404.989H0V416.708C0 422.502 4.69844 427.201 10.4933 427.201Z" fill="#E7ECF1"/>
<path d="M468.943 290.432V320.239C468.943 321.392 468.009 322.326 466.857 322.326H424.53C423.377 322.326 422.443 321.392 422.443 320.239V290.432C422.443 289.279 423.377 288.346 424.53 288.346H466.857C468.008 288.344 468.943 289.279 468.943 290.432ZM468.943 240.802C468.943 239.649 468.009 238.715 466.857 238.715H424.53C423.377 238.715 422.443 239.649 422.443 240.802V270.609C422.443 271.762 423.377 272.696 424.53 272.696H466.857C468.009 272.696 468.943 271.762 468.943 270.609V240.802ZM468.943 191.171C468.943 190.019 468.009 189.085 466.857 189.085H424.53C423.377 189.085 422.443 190.02 422.443 191.171V220.979C422.443 222.132 423.377 223.065 424.53 223.065H466.857C468.009 223.065 468.943 222.132 468.943 220.979V191.171ZM468.943 141.542C468.943 140.39 468.009 139.456 466.857 139.456H424.53C423.377 139.456 422.443 140.391 422.443 141.542V171.35C422.443 172.503 423.377 173.436 424.53 173.436H466.857C468.009 173.436 468.943 172.503 468.943 171.35V141.542Z" fill="#DA4A54"/>
<path d="M424.53 322.323H466.857C468.009 322.323 468.943 321.39 468.943 320.237V290.43C468.943 289.277 468.009 288.343 466.857 288.343H448.552C444.553 289.32 440.292 289.57 435.931 288.951C434.054 288.685 432.158 288.482 430.243 288.343H424.53C423.377 288.343 422.443 289.277 422.443 290.43V320.237C422.444 321.389 423.379 322.323 424.53 322.323Z" fill="#D82E3D"/>
<path d="M344.647 220.98C344.647 222.133 343.712 223.067 342.56 223.067H300.233C299.08 223.067 298.147 222.133 298.147 220.98V191.173C298.147 190.02 299.08 189.086 300.233 189.086H342.56C343.712 189.086 344.647 190.021 344.647 191.173V220.98ZM344.647 141.544C344.647 140.391 343.712 139.457 342.56 139.457H300.233C299.08 139.457 298.147 140.392 298.147 141.544V171.351C298.147 172.504 299.08 173.438 300.233 173.438H342.56C343.712 173.438 344.647 172.504 344.647 171.351V141.544ZM342.561 288.345H300.234C299.081 288.345 298.148 289.279 298.148 290.432V320.239C298.148 321.392 299.081 322.326 300.234 322.326H342.561C343.713 322.326 344.648 321.392 344.648 320.239V290.433C344.647 289.28 343.713 288.345 342.561 288.345ZM113.582 173.438H156.114C157.267 173.438 158.201 172.504 158.201 171.351V141.544C158.201 140.391 157.267 139.457 156.114 139.457H113.582C112.429 139.457 111.495 140.392 111.495 141.544V171.351C111.495 172.503 112.429 173.438 113.582 173.438ZM111.495 220.98C111.495 222.133 112.429 223.067 113.582 223.067H156.114C157.267 223.067 158.201 222.133 158.201 220.98V191.173C158.201 190.02 157.267 189.086 156.114 189.086H113.582C112.429 189.086 111.495 190.021 111.495 191.173V220.98ZM344.647 240.803C344.647 239.65 343.712 238.716 342.56 238.716H300.233C299.08 238.716 298.147 239.65 298.147 240.803V270.61C298.147 271.763 299.08 272.697 300.233 272.697H342.56C343.712 272.697 344.647 271.763 344.647 270.61V240.803ZM111.495 270.61C111.495 271.763 112.429 272.697 113.582 272.697H156.114C157.267 272.697 158.201 271.763 158.201 270.61V240.803C158.201 239.65 157.267 238.716 156.114 238.716H113.582C112.429 238.716 111.495 239.65 111.495 240.803V270.61ZM404.71 288.345H362.383C361.231 288.345 360.297 289.279 360.297 290.432V320.239C360.297 321.392 361.231 322.326 362.383 322.326H404.71C405.863 322.326 406.796 321.392 406.796 320.239V290.433C406.796 289.28 405.863 288.345 404.71 288.345ZM406.796 240.803C406.796 239.65 405.863 238.716 404.71 238.716H362.383C361.231 238.716 360.297 239.65 360.297 240.803V270.61C360.297 271.763 361.231 272.697 362.383 272.697H404.71C405.863 272.697 406.796 271.763 406.796 270.61V240.803ZM406.796 191.173C406.796 190.02 405.863 189.086 404.71 189.086H362.383C361.231 189.086 360.297 190.021 360.297 191.173V220.98C360.297 222.133 361.231 223.067 362.383 223.067H404.71C405.863 223.067 406.796 222.133 406.796 220.98V191.173ZM406.796 141.544C406.796 140.391 405.863 139.457 404.71 139.457H362.383C361.231 139.457 360.297 140.392 360.297 141.544V171.351C360.297 172.504 361.231 173.438 362.383 173.438H404.71C405.863 173.438 406.796 172.504 406.796 171.351V141.544ZM111.495 369.82C111.495 370.972 112.429 371.906 113.582 371.906H156.114C157.267 371.906 158.201 370.972 158.201 369.82V340.062C158.201 338.909 157.267 337.976 156.114 337.976H113.582C112.429 337.976 111.495 338.909 111.495 340.062V369.82ZM235.999 320.239C235.999 321.392 236.933 322.326 238.085 322.326H280.412C281.564 322.326 282.498 321.392 282.498 320.239V290.433C282.498 289.28 281.563 288.347 280.412 288.347H238.085C236.932 288.347 235.999 289.28 235.999 290.433V320.239ZM238.086 223.067H280.413C281.565 223.067 282.499 222.133 282.499 220.98V191.173C282.499 190.02 281.564 189.086 280.413 189.086H238.086C236.933 189.086 236 190.021 236 191.173V220.98C235.999 222.133 236.933 223.067 238.086 223.067ZM235.999 270.61C235.999 271.763 236.933 272.697 238.085 272.697H280.412C281.564 272.697 282.498 271.763 282.498 270.61V240.803C282.498 239.65 281.563 238.716 280.412 238.716H238.085C236.932 238.716 235.999 239.65 235.999 240.803V270.61ZM235.999 369.82C235.999 370.972 236.933 371.906 238.085 371.906H280.412C281.564 371.906 282.498 370.972 282.498 369.82V340.062C282.498 338.909 281.563 337.976 280.412 337.976H238.085C236.932 337.976 235.999 338.909 235.999 340.062V369.82ZM280.412 139.456H238.085C236.932 139.456 235.999 140.391 235.999 141.542V171.35C235.999 172.503 236.933 173.436 238.085 173.436H280.412C281.564 173.436 282.498 172.503 282.498 171.35V141.542C282.499 140.391 281.564 139.456 280.412 139.456ZM111.495 320.239C111.495 321.392 112.429 322.326 113.582 322.326H156.114C157.267 322.326 158.201 321.392 158.201 320.239V290.433C158.201 289.28 157.267 288.347 156.114 288.347H113.582C112.429 288.347 111.495 289.28 111.495 290.433V320.239ZM173.851 369.82C173.851 370.972 174.784 371.906 175.937 371.906H218.264C219.416 371.906 220.35 370.972 220.35 369.82V340.062C220.35 338.909 219.416 337.976 218.264 337.976H175.937C174.784 337.976 173.851 338.909 173.851 340.062V369.82ZM173.851 220.98C173.851 222.133 174.784 223.067 175.937 223.067H218.264C219.416 223.067 220.35 222.133 220.35 220.98V191.173C220.35 190.02 219.416 189.086 218.264 189.086H175.937C174.784 189.086 173.851 190.021 173.851 191.173V220.98ZM175.937 173.438H218.264C219.416 173.438 220.35 172.504 220.35 171.351V141.544C220.35 140.391 219.416 139.457 218.264 139.457H175.937C174.784 139.457 173.851 140.392 173.851 141.544V171.351C173.851 172.503 174.784 173.438 175.937 173.438ZM173.851 270.61C173.851 271.763 174.784 272.697 175.937 272.697H218.264C219.416 272.697 220.35 271.763 220.35 270.61V240.803C220.35 239.65 219.416 238.716 218.264 238.716H175.937C174.784 238.716 173.851 239.65 173.851 240.803V270.61ZM173.851 320.239C173.851 321.392 174.784 322.326 175.937 322.326H218.264C219.416 322.326 220.35 321.392 220.35 320.239V290.433C220.35 289.28 219.416 288.347 218.264 288.347H175.937C174.784 288.347 173.851 289.28 173.851 290.433V320.239Z" fill="#DAE4EA"/>
<path d="M360.295 320.238C360.295 321.39 361.228 322.324 362.381 322.324H404.708C405.86 322.324 406.794 321.39 406.794 320.238V290.431C406.794 290.268 406.775 290.11 406.739 289.958C388.302 293.91 372.059 304.019 360.294 317.999V320.238H360.295Z" fill="#C6D0DA"/>
<path d="M508.007 22.8483H10.4955C4.69844 22.8483 0 27.5478 0 33.3437V84.1608H518.503V33.3437C518.503 27.5478 513.803 22.8483 508.007 22.8483Z" fill="#61A2F9"/>
<path d="M49.5485 220.98V191.172C49.5485 190.02 50.4822 189.086 51.6347 189.086H93.7546C94.9071 189.086 95.8408 190.021 95.8408 191.172V220.98C95.8408 222.133 94.906 223.066 93.7546 223.066H51.6358C50.4833 223.066 49.5485 222.133 49.5485 220.98ZM49.5485 270.61C49.5485 271.763 50.4822 272.696 51.6347 272.696H93.7546C94.9071 272.696 95.8408 271.763 95.8408 270.61V240.803C95.8408 239.65 94.906 238.716 93.7546 238.716H51.6358C50.4833 238.716 49.5496 239.65 49.5496 240.803V270.61H49.5485ZM49.5485 369.82C49.5485 370.972 50.4822 371.906 51.6347 371.906H93.7546C94.9071 371.906 95.8408 370.972 95.8408 369.82V340.062C95.8408 338.909 94.906 337.975 93.7546 337.975H51.6358C50.4833 337.975 49.5496 338.909 49.5496 340.062V369.82H49.5485ZM49.5485 320.239C49.5485 321.392 50.4822 322.326 51.6347 322.326H93.7546C94.9071 322.326 95.8408 321.392 95.8408 320.239V290.433C95.8408 289.28 94.906 288.346 93.7546 288.346H51.6358C50.4833 288.346 49.5496 289.28 49.5496 290.433V320.239H49.5485Z" fill="#DA4A54"/>
<path d="M57.8189 56.1354H44.6195C38.8441 56.1354 34.1629 51.4532 34.1629 45.6788V10.4567C34.1629 4.68119 38.8451 0 44.6195 0H57.8189C63.5944 0 68.2756 4.68227 68.2756 10.4567V45.6777C68.2756 51.4532 63.5944 56.1354 57.8189 56.1354Z" fill="white"/>
<path d="M126.293 56.1354H114.136C108.36 56.1354 103.679 51.4532 103.679 45.6788V10.4567C103.679 4.68119 108.361 0 114.136 0H126.291C132.067 0 136.748 4.68227 136.748 10.4567V45.6777C136.749 51.4532 132.067 56.1354 126.293 56.1354Z" fill="white"/>
<path d="M195.808 56.1354H183.652C177.876 56.1354 173.195 51.4532 173.195 45.6788V10.4567C173.195 4.68119 177.876 0 183.652 0H195.808C201.583 0 206.264 4.68227 206.264 10.4567V45.6777C206.264 51.4532 201.583 56.1354 195.808 56.1354Z" fill="white"/>
<path d="M265.346 56.1354H253.191C247.415 56.1354 242.734 51.4532 242.734 45.6788V10.4567C242.734 4.68119 247.416 0 253.191 0H265.346C271.122 0 275.803 4.68227 275.803 10.4567V45.6777C275.803 51.4532 271.122 56.1354 265.346 56.1354Z" fill="white"/>
<path d="M334.862 56.1354H322.707C316.931 56.1354 312.25 51.4532 312.25 45.6788V10.4567C312.25 4.68119 316.931 0 322.707 0H334.862C340.638 0 345.319 4.68227 345.319 10.4567V45.6777C345.32 51.4532 340.638 56.1354 334.862 56.1354Z" fill="white"/>
<path d="M404.379 56.1354H392.223C386.447 56.1354 381.766 51.4532 381.766 45.6788V10.4567C381.766 4.68119 386.448 0 392.223 0H404.379C410.154 0 414.835 4.68227 414.835 10.4567V45.6777C414.836 51.4532 410.154 56.1354 404.379 56.1354Z" fill="white"/>
<path d="M508.011 22.8511H484.355L478.084 39.4077C478.084 45.1217 474.08 56.1326 474.08 56.1326V84.1626H518.505V33.3455C518.506 27.5495 513.807 22.8511 508.011 22.8511Z" fill="#5490F9"/>
<path d="M473.895 56.1354H461.739C455.964 56.1354 451.282 51.4532 451.282 45.6788V10.4567C451.282 4.68119 455.964 0 461.739 0H473.895C479.67 0 484.352 4.68227 484.352 10.4567V45.6777C484.352 51.4532 479.669 56.1354 473.895 56.1354Z" fill="white"/>
<path d="M468.552 477.216C514.634 477.216 551.991 439.859 551.991 393.777C551.991 347.695 514.634 310.338 468.552 310.338C422.47 310.338 385.113 347.695 385.113 393.777C385.113 439.859 422.47 477.216 468.552 477.216Z" fill="#80E29D"/>
<path d="M481.957 311.405C497.748 326.586 507.575 347.926 507.575 371.561C507.575 417.643 470.218 455 424.136 455C419.577 455 415.103 454.633 410.741 453.93C425.738 468.349 446.114 477.213 468.561 477.213C514.643 477.213 552 439.856 552 393.774C552 352.252 521.67 317.814 481.957 311.405Z" fill="#78D090"/>
<path d="M515.909 375.854L500.141 360.085C498.484 358.428 495.797 358.428 494.14 360.085L463.636 390.589C461.979 392.246 459.292 392.246 457.635 390.589L442.984 375.939C441.327 374.282 438.64 374.282 436.983 375.939L421.215 391.707C419.558 393.364 419.558 396.051 421.215 397.708L457.635 434.128C459.292 435.785 461.979 435.785 463.636 434.128L515.909 381.854C517.566 380.197 517.566 377.511 515.909 375.854Z" fill="#F6F9F9"/>
<path d="M507.474 367.419C507.541 368.792 507.575 370.174 507.575 371.563C507.575 378.959 506.612 386.129 504.807 392.957L515.908 381.855C517.565 380.198 517.565 377.512 515.908 375.855L507.474 367.419Z" fill="#E7ECF1"/>
</svg>
