<svg width="719" height="719" viewBox="0 0 719 719" fill="none" xmlns="http://www.w3.org/2000/svg">
<g clip-path="url(#clip0_1_686)">
<path d="M427.585 395.926C526.062 484.269 584.086 569.244 591.134 693.384H127.853C134.9 569.245 192.925 484.269 291.401 395.926L332.038 359.472L291.401 323.101C192.925 234.757 134.9 149.783 127.853 25.6423H591.134C584.086 149.783 526.062 234.759 427.585 323.101L386.95 359.472L427.585 395.926Z" fill="#F6F9F9"/>
<path d="M123.393 51.6143H595.583C611.473 51.6143 624.351 40.0592 624.351 25.8064C624.351 11.5536 611.473 0 595.583 0H123.393C107.503 0 94.6248 11.5551 94.6248 25.8079C94.6248 40.0607 107.503 51.6143 123.393 51.6143Z" fill="#2F4859"/>
<path d="M263.893 544.506C204.691 575.186 168.227 631.861 168.227 693.193H550.753C550.753 631.859 514.285 575.186 455.085 544.506L375.768 503.405C375.768 403.783 375.768 378.848 375.768 279.226L431.839 250.171C470.199 230.293 495.944 195.994 502.558 157.407C504.333 147.05 495.535 137.643 483.853 137.643H235.128C223.446 137.643 214.647 147.048 216.423 157.407C223.037 195.993 248.785 230.293 287.143 250.171L347.104 281.242C347.104 379.072 347.104 403.557 347.103 501.389L263.893 544.506Z" fill="#F7BE56"/>
<path d="M595.583 667.386H123.393C107.503 667.386 94.6248 678.941 94.6248 693.194C94.6248 707.445 107.503 719.001 123.393 719.001H595.583C611.473 719.001 624.351 707.446 624.351 693.194C624.351 678.942 611.473 667.386 595.583 667.386Z" fill="#2F4859"/>
</g>
<defs>
<clipPath id="clip0_1_686">
<rect width="719" height="719" fill="white"/>
</clipPath>
</defs>
</svg>
