<svg width="657" height="741" viewBox="0 0 657 741" fill="none" xmlns="http://www.w3.org/2000/svg">
<path d="M656.359 148.243L368.873 124.846L0.664185 148.243V722.867C0.664185 732.882 8.78189 741 18.797 741H638.224C648.24 741 656.361 732.879 656.361 722.863L656.359 148.243Z" fill="#F6F9F9"/>
<path d="M656.359 148.243L596.722 118.426V572.935C596.722 649.286 534.827 711.181 458.476 711.181H0.664185V722.867C0.664185 732.882 8.78189 741 18.797 741L638.222 741.001C648.239 741.001 656.359 732.88 656.359 722.863L656.359 148.243Z" fill="#E7ECF1"/>
<path d="M638.224 42.2972H18.7999C8.78334 42.2972 0.664185 50.4164 0.664185 60.4329V148.243H656.359L656.359 60.4329C656.359 50.4164 648.24 42.2972 638.224 42.2972Z" fill="#61A2F9"/>
<path d="M638.23 42.2986H596.727V148.244H656.364V60.4343C656.364 50.4178 648.245 42.2986 638.23 42.2986Z" fill="#5490F9"/>
<path d="M93.3555 99.8121H83.1668C73.1879 99.8121 65.0977 91.7219 65.0977 81.743V18.0691C65.0977 8.09021 73.1879 0 83.1668 0H93.3555C103.334 0 111.425 8.09021 111.425 18.0691V81.7416C111.425 91.7219 103.336 99.8121 93.3555 99.8121Z" fill="#DAE4EA"/>
<path d="M213.479 99.8121H203.29C193.311 99.8121 185.221 91.7219 185.221 81.743V18.0691C185.221 8.09021 193.311 0 203.29 0H213.479C223.457 0 231.548 8.09021 231.548 18.0691V81.7416C231.548 91.7219 223.459 99.8121 213.479 99.8121Z" fill="#DAE4EA"/>
<path d="M333.602 99.8121H323.413C313.434 99.8121 305.344 91.7219 305.344 81.743V18.0691C305.344 8.09021 313.434 0 323.413 0H333.602C343.58 0 351.671 8.09021 351.671 18.0691V81.7416C351.671 91.7219 343.58 99.8121 333.602 99.8121Z" fill="#DAE4EA"/>
<path d="M453.725 99.8121H443.536C433.557 99.8121 425.467 91.7219 425.467 81.743V18.0691C425.467 8.09021 433.556 0 443.536 0H453.725C463.704 0 471.794 8.09021 471.794 18.0691V81.7416C471.794 91.7219 463.704 99.8121 453.725 99.8121Z" fill="#DAE4EA"/>
<path d="M573.878 99.8121H563.689C553.71 99.8121 545.62 91.7219 545.62 81.743V18.0691C545.62 8.09021 553.709 0 563.689 0H573.878C583.857 0 591.947 8.09021 591.947 18.0691V81.7416C591.947 91.7219 583.857 99.8121 573.878 99.8121Z" fill="#DAE4EA"/>
<path d="M201.593 292.146V265.92C201.593 262.686 204.215 260.063 207.45 260.063H538.703C541.938 260.063 544.56 262.686 544.56 265.92V292.146C544.56 295.381 541.938 298.003 538.703 298.003H207.45C204.215 298.003 201.593 295.381 201.593 292.146Z" fill="#DAE4EA"/>
<path d="M201.593 368.026V341.8C201.593 338.565 204.215 335.943 207.45 335.943H538.703C541.938 335.943 544.56 338.565 544.56 341.8V368.026C544.56 371.26 541.938 373.883 538.703 373.883H207.45C204.215 373.884 201.593 371.26 201.593 368.026Z" fill="#DAE4EA"/>
<path d="M201.593 443.909V417.683C201.593 414.449 204.215 411.826 207.45 411.826H538.703C541.938 411.826 544.56 414.449 544.56 417.683V443.909C544.56 447.144 541.938 449.766 538.703 449.766H207.45C204.215 449.766 201.593 447.144 201.593 443.909Z" fill="#DAE4EA"/>
<path d="M201.593 519.789V493.563C201.593 490.328 204.215 487.706 207.45 487.706H538.703C541.938 487.706 544.56 490.328 544.56 493.563V519.789C544.56 523.024 541.938 525.646 538.703 525.646H207.45C204.215 525.647 201.593 523.025 201.593 519.789Z" fill="#DAE4EA"/>
<path d="M201.593 595.669V569.443C201.593 566.208 204.215 563.586 207.45 563.586H538.703C541.938 563.586 544.56 566.208 544.56 569.443V595.669C544.56 598.903 541.938 601.526 538.703 601.526H207.45C204.215 601.526 201.593 598.903 201.593 595.669Z" fill="#DAE4EA"/>
<path d="M112.496 292.146V265.92C112.496 262.686 115.118 260.063 118.353 260.063H150.996C154.23 260.063 156.853 262.686 156.853 265.92V292.146C156.853 295.381 154.23 298.003 150.996 298.003H118.353C115.118 298.003 112.496 295.381 112.496 292.146Z" fill="#DAE4EA"/>
<path d="M112.496 368.027V341.801C112.496 338.567 115.118 335.944 118.353 335.944H150.996C154.23 335.944 156.853 338.567 156.853 341.801V368.027C156.853 371.262 154.23 373.884 150.996 373.884H118.353C115.118 373.886 112.496 371.262 112.496 368.027Z" fill="#DAE4EA"/>
<path d="M112.496 443.908V417.682C112.496 414.447 115.118 411.825 118.353 411.825H150.996C154.23 411.825 156.853 414.447 156.853 417.682V443.908C156.853 447.142 154.23 449.765 150.996 449.765H118.353C115.118 449.765 112.496 447.142 112.496 443.908Z" fill="#DAE4EA"/>
<path d="M112.496 519.787V493.561C112.496 490.327 115.118 487.704 118.353 487.704H150.996C154.23 487.704 156.853 490.327 156.853 493.561V519.787C156.853 523.022 154.23 525.644 150.996 525.644H118.353C115.118 525.646 112.496 523.023 112.496 519.787Z" fill="#DAE4EA"/>
<path d="M112.496 595.67V569.444C112.496 566.209 115.118 563.587 118.353 563.587H150.996C154.23 563.587 156.853 566.209 156.853 569.444V595.67C156.853 598.904 154.23 601.527 150.996 601.527H118.353C115.118 601.527 112.496 598.904 112.496 595.67Z" fill="#DAE4EA"/>
</svg>
