<svg width="697" height="697" viewBox="0 0 697 697" fill="none" xmlns="http://www.w3.org/2000/svg">
<path d="M631.656 217.817H609.875V152.473C609.875 140.407 600.117 130.692 588.094 130.692H65.3438C29.3176 130.692 0 160.01 0 196.036V588.098C0 624.125 29.3176 653.442 65.3438 653.442H631.656C643.679 653.442 653.438 643.684 653.438 631.661V239.598C653.438 227.532 643.679 217.817 631.656 217.817Z" fill="#FA855C"/>
<path d="M65.3438 174.255H566.312V217.817H65.3438C53.3205 217.817 43.5625 208.059 43.5625 196.036C43.5625 184.013 53.3205 174.255 65.3438 174.255Z" fill="#F8FEFE"/>
<path d="M675.219 479.192H544.531C508.461 479.192 479.188 449.918 479.188 413.848C479.188 377.735 508.461 348.505 544.531 348.505H675.219C687.242 348.505 697 358.263 697 370.286V457.411C697 469.434 687.242 479.192 675.219 479.192Z" fill="#FFD6C8"/>
<path d="M557.987 217.815L476.874 55.5878C471.472 44.8279 458.404 40.5152 447.644 45.8298L103.761 217.815H557.987Z" fill="#F8FEFE"/>
<path d="M43.5625 217.816H470.867L389.754 55.5895C384.352 44.8296 371.283 40.5169 360.523 45.8751L43.5625 204.355V217.816Z" fill="#E6EAE8"/>
</svg>
